<svg width="64" height="64" viewBox="0 0 64 64" fill="none" xmlns="http://www.w3.org/2000/svg">
<path d="M57.6 61.8339H48.7385C48.3446 61.8339 47.9508 62.1292 47.9508 62.6216C47.9508 63.1139 48.2462 63.4092 48.7385 63.4092H57.6C57.9939 63.4092 58.3877 63.1139 58.3877 62.6216C58.3877 62.1292 57.9939 61.8339 57.6 61.8339Z" fill="#0F506E"/>
<path d="M62.5231 61.8339H61.5385C61.1446 61.8339 60.7508 62.1292 60.7508 62.6216C60.7508 63.1139 61.0462 63.4092 61.5385 63.4092H62.5231C62.9169 63.4092 63.3108 63.1139 63.3108 62.6216C63.3108 62.1292 62.9169 61.8339 62.5231 61.8339Z" fill="#0F506E"/>
<path d="M9.35387 59.8647H8.17233V58.5847C8.17233 58.1908 7.87695 57.797 7.38464 57.797C6.89233 57.797 6.59695 58.0924 6.59695 58.5847V59.8647H5.41541C5.02156 59.8647 4.62772 60.1601 4.62772 60.6524C4.62772 61.1447 4.9231 61.4401 5.41541 61.4401H6.69541V62.7201C6.69541 63.1139 6.99079 63.5078 7.4831 63.5078C7.97541 63.5078 8.27079 63.2124 8.27079 62.7201V61.4401H9.55079C9.94464 61.4401 10.3385 61.1447 10.3385 60.6524C10.3385 60.1601 9.74772 59.8647 9.35387 59.8647Z" fill="#0F506E"/>
<path d="M62.5231 0.78772H1.47693C1.08309 0.78772 0.68924 1.0831 0.68924 1.57541V52.7754C0.68924 53.1693 0.984624 53.5631 1.47693 53.5631H10.7323C11.1262 53.5631 11.52 53.2677 11.52 52.7754C11.52 52.2831 11.2246 51.9877 10.7323 51.9877H2.26462V10.1416H61.8339V51.9877H53.2677C52.8739 51.9877 52.48 52.2831 52.48 52.7754C52.48 53.2677 52.7754 53.5631 53.2677 53.5631H62.5231C62.9169 53.5631 63.3108 53.2677 63.3108 52.7754V1.57541C63.3108 1.0831 62.9169 0.78772 62.5231 0.78772ZM2.26462 8.66464V2.26464H61.8339V8.66464H2.26462Z" fill="#0F506E"/>
<path d="M57.6 48.5416C57.9938 48.5416 58.3877 48.2462 58.3877 47.7539V14.277C58.3877 13.8831 58.0923 13.4893 57.6 13.4893H6.4C6.00615 13.4893 5.6123 13.7846 5.6123 14.277V47.7539C5.6123 48.1477 5.90769 48.5416 6.4 48.5416C6.8923 48.5416 7.18769 48.2462 7.18769 47.7539V15.0646H56.9108V47.8523C56.9108 48.1477 57.2062 48.5416 57.6 48.5416Z" fill="#0F506E"/>
<path d="M7.38461 6.40002C7.9284 6.40002 8.36923 5.95919 8.36923 5.4154C8.36923 4.87161 7.9284 4.43079 7.38461 4.43079C6.84082 4.43079 6.39999 4.87161 6.39999 5.4154C6.39999 5.95919 6.84082 6.40002 7.38461 6.40002Z" fill="#0F506E"/>
<path d="M15.2615 6.40002C15.8053 6.40002 16.2461 5.95919 16.2461 5.4154C16.2461 4.87161 15.8053 4.43079 15.2615 4.43079C14.7177 4.43079 14.2769 4.87161 14.2769 5.4154C14.2769 5.95919 14.7177 6.40002 15.2615 6.40002Z" fill="#0F506E"/>
<path d="M11.3231 6.40002C11.8669 6.40002 12.3077 5.95919 12.3077 5.4154C12.3077 4.87161 11.8669 4.43079 11.3231 4.43079C10.7793 4.43079 10.3385 4.87161 10.3385 5.4154C10.3385 5.95919 10.7793 6.40002 11.3231 6.40002Z" fill="#0F506E"/>
<path d="M49.92 53.1693L47.2616 50.5108C47.9508 49.2308 48.5416 47.8524 48.9354 46.4739H52.6769C53.0708 46.4739 53.4646 46.1785 53.4646 45.6862V37.9077C53.4646 37.5139 53.1692 37.1201 52.6769 37.1201H48.9354C48.5416 35.7416 47.9508 34.3631 47.2616 33.0831L49.92 30.4247C50.2154 30.1293 50.2154 29.637 49.92 29.3416L44.4062 23.8277C44.1108 23.5324 43.6185 23.5324 43.3231 23.8277L40.6646 26.5847C39.3846 25.8954 38.0062 25.3047 36.6277 24.9108V21.1693C36.6277 20.7754 36.3323 20.3816 35.84 20.3816H28.0616C27.6677 20.3816 27.2739 20.677 27.2739 21.1693V24.9108C25.8954 25.3047 24.5169 25.8954 23.2369 26.5847L20.6769 23.9262C20.3816 23.6308 19.8892 23.6308 19.5939 23.9262L14.08 29.4401C13.7846 29.7354 13.7846 30.2277 14.08 30.5231L16.7385 33.1816C16.0492 34.4616 15.4585 35.8401 15.0646 37.2185H11.3231C10.9292 37.2185 10.5354 37.5139 10.5354 38.0062V45.7847C10.5354 46.1785 10.8308 46.5724 11.3231 46.5724H15.0646C15.4585 47.9508 16.0492 49.3293 16.7385 50.6093L14.08 53.1693C13.7846 53.4647 13.7846 53.957 14.08 54.2524L19.5939 59.7662C19.8892 60.0616 20.3816 60.0616 20.6769 59.7662L23.3354 57.1077C24.6154 57.797 25.9939 58.3877 27.3723 58.7816V62.5231C27.3723 62.917 27.6677 63.3108 28.16 63.3108H35.9385C36.3323 63.3108 36.7262 63.0154 36.7262 62.5231V58.7816C38.1046 58.3877 39.4831 57.797 40.7631 57.1077L43.4216 59.7662C43.7169 60.0616 44.2092 60.0616 44.5046 59.7662L50.0185 54.2524C50.2154 53.957 50.2154 53.4647 49.92 53.1693ZM43.9139 58.1908L41.3539 55.6308C41.1569 55.4339 40.7631 55.3354 40.4677 55.5324C38.9908 56.4185 37.4154 57.1077 35.7416 57.5016C35.4462 57.6001 35.1508 57.8954 35.1508 58.1908V61.8339H28.8492V58.1908C28.8492 57.8954 28.6523 57.6001 28.2585 57.5016C26.5846 57.1077 25.0092 56.4185 23.5323 55.5324C23.2369 55.3354 22.8431 55.4339 22.6462 55.6308L20.0862 58.1908L15.6554 53.76L18.2154 51.2001C18.4123 51.0031 18.5108 50.6093 18.3139 50.3139C17.4277 48.837 16.7385 47.2616 16.3446 45.5877C16.2462 45.2924 15.9508 44.997 15.6554 44.997H12.0123V38.6954H15.6554C15.9508 38.6954 16.2462 38.4985 16.3446 38.1047C16.7385 36.4308 17.4277 34.8554 18.3139 33.3785C18.5108 33.0831 18.4123 32.6893 18.2154 32.4924L15.6554 29.9324L20.0862 25.5016L22.6462 28.0616C22.8431 28.2585 23.2369 28.357 23.5323 28.1601C25.0092 27.2739 26.5846 26.5847 28.2585 26.1908C28.5539 26.0924 28.8492 25.797 28.8492 25.5016V21.8585H35.1508V25.5016C35.1508 25.797 35.3477 26.0924 35.7416 26.1908C37.4154 26.5847 38.9908 27.2739 40.4677 28.1601C40.7631 28.357 41.1569 28.2585 41.3539 28.0616L43.9139 25.5016L48.3446 29.9324L45.7846 32.4924C45.5877 32.6893 45.4892 33.0831 45.6862 33.3785C46.5723 34.8554 47.2616 36.4308 47.6554 38.1047C47.7539 38.4001 48.0492 38.6954 48.3446 38.6954H51.9877V44.997H48.3446C48.0492 44.997 47.7539 45.1939 47.6554 45.5877C47.2616 47.2616 46.5723 48.837 45.6862 50.3139C45.4892 50.6093 45.5877 51.0031 45.7846 51.2001L48.3446 53.76L43.9139 58.1908Z" fill="#0F506E"/>
<path d="M32 30.8185C25.8954 30.8185 20.8738 35.7416 20.8738 41.9446C20.8738 48.1477 25.7969 53.0708 32 53.0708C38.2031 53.0708 43.1261 48.1477 43.1261 41.9446C43.1261 35.7416 38.1046 30.8185 32 30.8185ZM32 51.4954C26.6831 51.4954 22.3508 47.1631 22.3508 41.8462C22.3508 36.5293 26.6831 32.1969 32 32.1969C37.3169 32.1969 41.6492 36.5293 41.6492 41.8462C41.6492 47.1631 37.3169 51.4954 32 51.4954Z" fill="#0F506E"/>
</svg>
