<svg width="64" height="64" viewBox="0 0 64 64" fill="none" xmlns="http://www.w3.org/2000/svg">
<path d="M60 2H4C3.46973 2.00053 2.96133 2.21141 2.58637 2.58637C2.21141 2.96133 2.00053 3.46973 2 4V60C2.00053 60.5303 2.21141 61.0387 2.58637 61.4136C2.96133 61.7886 3.46973 61.9995 4 62H60C60.5303 61.9995 61.0387 61.7886 61.4136 61.4136C61.7886 61.0387 61.9995 60.5303 62 60V4C61.9995 3.46973 61.7886 2.96133 61.4136 2.58637C61.0387 2.21141 60.5303 2.00053 60 2ZM60 4V16H4V4H60ZM4 60V18H60L60.0011 60H4Z" fill="#0F506E"/>
<path d="M11 14C11.7911 14 12.5645 13.7654 13.2223 13.3259C13.8801 12.8864 14.3928 12.2616 14.6955 11.5307C14.9983 10.7998 15.0775 9.99556 14.9231 9.21964C14.7688 8.44372 14.3878 7.73098 13.8284 7.17157C13.269 6.61216 12.5563 6.2312 11.7804 6.07686C11.0044 5.92252 10.2002 6.00173 9.46927 6.30448C8.73836 6.60723 8.11365 7.11992 7.67412 7.77772C7.2346 8.43552 7 9.20888 7 10C7.00119 11.0605 7.423 12.0772 8.17289 12.8271C8.92278 13.577 9.9395 13.9988 11 14ZM11 8C11.3956 8 11.7822 8.1173 12.1111 8.33706C12.44 8.55683 12.6964 8.86918 12.8478 9.23464C12.9991 9.60009 13.0387 10.0022 12.9616 10.3902C12.8844 10.7781 12.6939 11.1345 12.4142 11.4142C12.1345 11.6939 11.7781 11.8844 11.3902 11.9616C11.0022 12.0387 10.6001 11.9991 10.2346 11.8478C9.86918 11.6964 9.55682 11.44 9.33706 11.1111C9.1173 10.7822 9 10.3956 9 10C9.00053 9.46973 9.21141 8.96133 9.58637 8.58637C9.96133 8.21142 10.4697 8.00053 11 8Z" fill="#0F506E"/>
<path d="M22 14C22.7911 14 23.5645 13.7654 24.2223 13.3259C24.8801 12.8864 25.3928 12.2616 25.6955 11.5307C25.9983 10.7998 26.0775 9.99556 25.9231 9.21964C25.7688 8.44372 25.3878 7.73098 24.8284 7.17157C24.269 6.61216 23.5563 6.2312 22.7804 6.07686C22.0044 5.92252 21.2002 6.00173 20.4693 6.30448C19.7384 6.60723 19.1136 7.11992 18.6741 7.77772C18.2346 8.43552 18 9.20888 18 10C18.0012 11.0605 18.423 12.0772 19.1729 12.8271C19.9228 13.577 20.9395 13.9988 22 14ZM22 8C22.3956 8 22.7822 8.1173 23.1111 8.33706C23.44 8.55683 23.6964 8.86918 23.8478 9.23464C23.9991 9.60009 24.0387 10.0022 23.9616 10.3902C23.8844 10.7781 23.6939 11.1345 23.4142 11.4142C23.1345 11.6939 22.7781 11.8844 22.3902 11.9616C22.0022 12.0387 21.6001 11.9991 21.2346 11.8478C20.8692 11.6964 20.5568 11.44 20.3371 11.1111C20.1173 10.7822 20 10.3956 20 10C20.0005 9.46973 20.2114 8.96133 20.5864 8.58637C20.9613 8.21142 21.4697 8.00053 22 8Z" fill="#0F506E"/>
<path d="M30 14H56C56.2652 14 56.5196 13.8946 56.7071 13.7071C56.8946 13.5196 57 13.2652 57 13V7C57 6.73478 56.8946 6.48043 56.7071 6.29289C56.5196 6.10536 56.2652 6 56 6H30C29.7348 6 29.4804 6.10536 29.2929 6.29289C29.1054 6.48043 29 6.73478 29 7V13C29 13.2652 29.1054 13.5196 29.2929 13.7071C29.4804 13.8946 29.7348 14 30 14ZM31 8H55V12H31V8Z" fill="#0F506E"/>
<path d="M37 22H9C8.73478 22 8.48043 22.1054 8.29289 22.2929C8.10536 22.4804 8 22.7348 8 23V55C8 55.2652 8.10536 55.5196 8.29289 55.7071C8.48043 55.8946 8.73478 56 9 56H37C37.2652 56 37.5196 55.8946 37.7071 55.7071C37.8946 55.5196 38 55.2652 38 55V23C38 22.7348 37.8946 22.4804 37.7071 22.2929C37.5196 22.1054 37.2652 22 37 22ZM36 24V48H10V24H36ZM10 54V50H36V54H10Z" fill="#0F506E"/>
<path d="M18 44.5825C18.3033 44.7601 18.6485 44.8538 19 44.8538C19.3515 44.8538 19.6966 44.7601 20 44.5825L31 38.2314C31.3039 38.0558 31.5564 37.8034 31.7318 37.4994C31.9073 37.1954 31.9997 36.8505 31.9997 36.4995C31.9997 36.1485 31.9073 35.8036 31.7318 35.4996C31.5564 35.1956 31.3039 34.9432 31 34.7676L20 28.417C19.6959 28.2415 19.3511 28.1491 19 28.149C18.649 28.149 18.3041 28.2414 18 28.417C17.696 28.5925 17.4435 28.8449 17.268 29.1489C17.0924 29.453 17 29.7978 17 30.1489V42.8511C16.9979 43.2025 17.0894 43.5481 17.2651 43.8524C17.4409 44.1567 17.6945 44.4087 18 44.5825ZM19 30.1494L30 36.5L19 42.8511V30.1494Z" fill="#0F506E"/>
<path d="M47 28H55C55.2652 28 55.5196 27.8946 55.7071 27.7071C55.8946 27.5196 56 27.2652 56 27C56 26.7348 55.8946 26.4804 55.7071 26.2929C55.5196 26.1054 55.2652 26 55 26H47C46.7348 26 46.4804 26.1054 46.2929 26.2929C46.1054 26.4804 46 26.7348 46 27C46 27.2652 46.1054 27.5196 46.2929 27.7071C46.4804 27.8946 46.7348 28 47 28Z" fill="#0F506E"/>
<path d="M55 34H43C42.7348 34 42.4804 34.1054 42.2929 34.2929C42.1054 34.4804 42 34.7348 42 35C42 35.2652 42.1054 35.5196 42.2929 35.7071C42.4804 35.8946 42.7348 36 43 36H55C55.2652 36 55.5196 35.8946 55.7071 35.7071C55.8946 35.5196 56 35.2652 56 35C56 34.7348 55.8946 34.4804 55.7071 34.2929C55.5196 34.1054 55.2652 34 55 34Z" fill="#0F506E"/>
<path d="M55 42H43C42.7348 42 42.4804 42.1054 42.2929 42.2929C42.1054 42.4804 42 42.7348 42 43C42 43.2652 42.1054 43.5196 42.2929 43.7071C42.4804 43.8946 42.7348 44 43 44H55C55.2652 44 55.5196 43.8946 55.7071 43.7071C55.8946 43.5196 56 43.2652 56 43C56 42.7348 55.8946 42.4804 55.7071 42.2929C55.5196 42.1054 55.2652 42 55 42Z" fill="#0F506E"/>
<path d="M55 50H43C42.7348 50 42.4804 50.1054 42.2929 50.2929C42.1054 50.4804 42 50.7348 42 51C42 51.2652 42.1054 51.5196 42.2929 51.7071C42.4804 51.8946 42.7348 52 43 52H55C55.2652 52 55.5196 51.8946 55.7071 51.7071C55.8946 51.5196 56 51.2652 56 51C56 50.7348 55.8946 50.4804 55.7071 50.2929C55.5196 50.1054 55.2652 50 55 50Z" fill="#0F506E"/>
</svg>
