<svg width="64" height="64" viewBox="0 0 64 64" fill="none" xmlns="http://www.w3.org/2000/svg">
<path d="M37.3333 32C35.6331 32 34.2272 32.6699 33.3227 33.6917C32.4181 34.7157 32 36.0341 32 37.3333C32 38.9973 30.7883 40.3584 30.272 40.7616C29.4784 41.3888 29.92 42.6645 30.9333 42.6667H36.2667C37.9435 42.6667 39.5029 42.176 40.6869 41.2544C41.8709 40.3328 42.6667 38.9291 42.6667 37.3333C42.6667 35.8763 42.2549 34.5173 41.3227 33.5253C40.384 32.5333 38.9824 32 37.3333 32ZM37.3333 34.1333C38.5493 34.1333 39.2832 34.4747 39.7653 34.9867C40.2496 35.4987 40.5333 36.2709 40.5333 37.3333C40.5333 38.2549 40.128 38.9888 39.3813 39.5733C38.6283 40.1536 37.5211 40.5333 36.2667 40.5333H33.2309C33.7365 39.68 34.1312 38.6133 34.1312 37.3333C34.1312 36.5013 34.4085 35.6864 34.9163 35.1083C35.4283 34.5323 36.16 34.1333 37.3312 34.1333H37.3333ZM62.4725 10.688C62.2037 10.72 61.9755 10.7904 61.7216 10.88C61.2139 11.0507 60.6272 11.328 59.9339 11.6779C58.5472 12.3819 56.7829 13.4123 54.9205 14.5899C51.1872 16.9429 47.1125 19.8315 45.0176 21.9243C43.0229 23.9168 41.5701 25.7301 40.8875 27.5499C40.2048 29.3675 40.4907 31.3408 41.9072 32.7552C43.3259 34.1739 45.2992 34.4619 47.1168 33.7792C48.9365 33.0965 50.7499 31.6416 52.7424 29.6491C54.8331 27.552 57.7237 23.4773 60.0811 19.7504C61.2587 17.8816 62.2891 16.1152 62.9931 14.7307C63.3451 14.0395 63.6181 13.4507 63.7931 12.9429C63.8784 12.6869 63.9467 12.4608 63.9765 12.192C64.0043 11.9232 64.0768 11.4944 63.6203 11.04C63.1637 10.5813 62.7392 10.656 62.4683 10.6837L62.4725 10.688ZM61.0923 13.7685C60.4373 15.0549 59.4283 16.7893 58.2763 18.6112C55.9723 22.2656 53.0283 26.3509 51.2363 28.1429C49.3419 30.0352 47.6565 31.3003 46.3659 31.7845C45.0773 32.2645 44.3307 32.1621 43.4155 31.2512C42.5045 30.3339 42.4021 29.5872 42.8821 28.2987C43.3685 27.0101 44.6315 25.3248 46.5301 23.4347C48.3221 21.6427 52.4053 18.6987 56.0576 16.3947C57.8837 15.2384 59.616 14.2293 60.9045 13.5744C61.1904 13.4976 61.1819 13.6213 61.0965 13.7664L61.0923 13.7685ZM5.33333 17.0667H41.6C42.1909 17.0667 42.6667 17.5424 42.6667 18.1333C42.6667 18.7243 42.1909 19.2 41.6 19.2H5.33333C4.7424 19.2 4.26667 18.7243 4.26667 18.1333C4.26667 17.5424 4.7424 17.0667 5.33333 17.0667ZM14.9333 13.8667C14.9333 14.4555 14.4555 14.9333 13.8667 14.9333C13.2779 14.9333 12.8 14.4555 12.8 13.8667C12.8 13.2779 13.2779 12.8 13.8667 12.8C14.4555 12.8 14.9333 13.2779 14.9333 13.8667ZM10.6667 13.8667C10.6667 14.4555 10.1888 14.9333 9.6 14.9333C9.0112 14.9333 8.53333 14.4555 8.53333 13.8667C8.53333 13.2779 9.0112 12.8 9.6 12.8C10.1888 12.8 10.6667 13.2779 10.6667 13.8667ZM6.4 13.8667C6.4 14.4555 5.92213 14.9333 5.33333 14.9333C4.74453 14.9333 4.26667 14.4555 4.26667 13.8667C4.26667 13.2779 4.74453 12.8 5.33333 12.8C5.92213 12.8 6.4 13.2779 6.4 13.8667ZM3.2 8.53333C1.4464 8.53333 0 9.97972 0 11.7333V52.2667C0 54.0203 1.4464 55.4667 3.2 55.4667H56.5333C58.2869 55.4667 59.7333 54.0203 59.7333 52.2667V26.6667C59.7333 25.2416 57.6 25.248 57.6 26.6667V52.2667C57.6 52.8768 57.1435 53.3333 56.5333 53.3333H3.2C2.58987 53.3333 2.13333 52.8768 2.13333 52.2667V11.7333C2.13333 11.1232 2.58987 10.6667 3.2 10.6667H56.5333C57.952 10.6667 57.9349 8.53333 56.5333 8.53333H3.2Z" fill="#0F506E"/>
</svg>
