<svg width="64" height="64" viewBox="0 0 64 64" fill="none" xmlns="http://www.w3.org/2000/svg">
<g clip-path="url(#clip0_419_88)">
<path d="M62.6667 10.6666H8C7.64638 10.6666 7.30724 10.8071 7.05719 11.0572C6.80714 11.3072 6.66667 11.6463 6.66667 12C6.66667 12.3536 6.80714 12.6927 7.05719 12.9428C7.30724 13.1928 7.64638 13.3333 8 13.3333H61.3333V57.3333C61.3333 58.3942 60.9119 59.4116 60.1618 60.1617C59.4116 60.9119 58.3942 61.3333 57.3333 61.3333H6.66667C5.6058 61.3333 4.58839 60.9119 3.83824 60.1617C3.08809 59.4116 2.66667 58.3942 2.66667 57.3333V6.66663C2.66667 5.60577 3.08809 4.58835 3.83824 3.83821C4.58839 3.08806 5.6058 2.66663 6.66667 2.66663H57.3333C57.8661 2.6384 58.3988 2.72253 58.8968 2.91356C59.3949 3.10459 59.8473 3.39825 60.2245 3.77547C60.6017 4.15269 60.8954 4.60503 61.0864 5.10312C61.2774 5.60121 61.3616 6.13391 61.3333 6.66663C61.3333 7.02026 61.4738 7.35939 61.7239 7.60944C61.9739 7.85949 62.313 7.99997 62.6667 7.99997C63.0203 7.99997 63.3594 7.85949 63.6095 7.60944C63.8595 7.35939 64 7.02026 64 6.66663C64.0335 5.78216 63.884 4.9003 63.5608 4.07631C63.2376 3.25232 62.7477 2.50394 62.1219 1.87808C61.496 1.25222 60.7476 0.762349 59.9237 0.439171C59.0997 0.115994 58.2178 -0.0335307 57.3333 -3.33549e-05H6.66667C4.89921 0.00208379 3.20474 0.705143 1.95496 1.95493C0.705176 3.20471 0.00211714 4.89917 0 6.66663L0 57.3333C0.00211714 59.1008 0.705176 60.7952 1.95496 62.045C3.20474 63.2948 4.89921 63.9978 6.66667 64H57.3333C59.1008 63.9978 60.7952 63.2948 62.045 62.045C63.2948 60.7952 63.9979 59.1008 64 57.3333V12C64 11.6463 63.8595 11.3072 63.6095 11.0572C63.3594 10.8071 63.0203 10.6666 62.6667 10.6666Z" fill="#0F506E"/>
<path d="M56 29.3333C56.3536 29.3333 56.6927 29.1929 56.9428 28.9428C57.1928 28.6928 57.3333 28.3536 57.3333 28V24C57.3333 22.9391 56.9119 21.9217 56.1617 21.1716C55.4116 20.4214 54.3942 20 53.3333 20H10.6666C9.60576 20 8.58834 20.4214 7.8382 21.1716C7.08805 21.9217 6.66663 22.9391 6.66663 24V28C6.66663 28.3536 6.8071 28.6928 7.05715 28.9428C7.3072 29.1929 7.64634 29.3333 7.99996 29.3333C8.35358 29.3333 8.69272 29.1929 8.94277 28.9428C9.19282 28.6928 9.33329 28.3536 9.33329 28V24C9.33329 23.6464 9.47377 23.3072 9.72382 23.0572C9.97387 22.8071 10.313 22.6667 10.6666 22.6667H53.3333C53.6869 22.6667 54.0261 22.8071 54.2761 23.0572C54.5262 23.3072 54.6666 23.6464 54.6666 24V28C54.6666 28.3536 54.8071 28.6928 55.0572 28.9428C55.3072 29.1929 55.6463 29.3333 56 29.3333Z" fill="#0F506E"/>
<path d="M7.99996 5.33325C7.64634 5.33325 7.3072 5.47373 7.05715 5.72378C6.8071 5.97382 6.66663 6.31296 6.66663 6.66659C6.66663 7.02021 6.8071 7.35935 7.05715 7.60939C7.3072 7.85944 7.64634 7.99992 7.99996 7.99992H10.6666C11.0202 7.99992 11.3594 7.85944 11.6094 7.60939C11.8595 7.35935 12 7.02021 12 6.66659C12 6.31296 11.8595 5.97382 11.6094 5.72378C11.3594 5.47373 11.0202 5.33325 10.6666 5.33325H7.99996Z" fill="#0F506E"/>
<path d="M16 5.33325C15.6463 5.33325 15.3072 5.47373 15.0572 5.72378C14.8071 5.97382 14.6666 6.31296 14.6666 6.66659C14.6666 7.02021 14.8071 7.35935 15.0572 7.60939C15.3072 7.85944 15.6463 7.99992 16 7.99992H18.6666C19.0202 7.99992 19.3594 7.85944 19.6094 7.60939C19.8595 7.35935 20 7.02021 20 6.66659C20 6.31296 19.8595 5.97382 19.6094 5.72378C19.3594 5.47373 19.0202 5.33325 18.6666 5.33325H16Z" fill="#0F506E"/>
<path d="M54.6667 5.33325C54.3131 5.33325 53.9739 5.47373 53.7239 5.72378C53.4738 5.97382 53.3334 6.31296 53.3334 6.66659C53.3334 7.02021 53.4738 7.35935 53.7239 7.60939C53.9739 7.85944 54.3131 7.99992 54.6667 7.99992H57.3334C57.687 7.99992 58.0261 7.85944 58.2762 7.60939C58.5262 7.35935 58.6667 7.02021 58.6667 6.66659C58.6667 6.31296 58.5262 5.97382 58.2762 5.72378C58.0261 5.47373 57.687 5.33325 57.3334 5.33325H54.6667Z" fill="#0F506E"/>
<path d="M10.6667 33.3333C10.313 33.3333 9.9739 33.4737 9.72385 33.7238C9.4738 33.9738 9.33333 34.313 9.33333 34.6666V45.3333C9.31784 45.8627 9.41072 46.3898 9.60625 46.8821C9.80179 47.3744 10.0959 47.8216 10.4704 48.1961C10.845 48.5707 11.2922 48.8648 11.7845 49.0603C12.2768 49.2559 12.8038 49.3487 13.3333 49.3333C14.3113 49.3656 15.2648 49.0243 16 48.3786C16.7352 49.0243 17.6887 49.3656 18.6667 49.3333C19.1961 49.3487 19.7232 49.2559 20.2155 49.0603C20.7078 48.8648 21.155 48.5707 21.5296 48.1961C21.9041 47.8216 22.1982 47.3744 22.3937 46.8821C22.5893 46.3898 22.6821 45.8627 22.6667 45.3333V34.6666C22.6667 34.313 22.5262 33.9738 22.2761 33.7238C22.0261 33.4737 21.6869 33.3333 21.3333 33.3333C20.9797 33.3333 20.6406 33.4737 20.3905 33.7238C20.1405 33.9738 20 34.313 20 34.6666V45.3173C20.0192 45.4978 19.998 45.6803 19.938 45.8516C19.878 46.0229 19.7807 46.1788 19.6531 46.3079C19.5255 46.437 19.3708 46.5362 19.2002 46.5982C19.0296 46.6602 18.8474 46.6836 18.6667 46.6666C18.4872 46.6842 18.3061 46.6618 18.1363 46.601C17.9665 46.5403 17.8123 46.4426 17.6848 46.3151C17.5573 46.1876 17.4597 46.0334 17.3989 45.8636C17.3381 45.6939 17.3157 45.5127 17.3333 45.3333V39.9999C17.3333 39.6463 17.1928 39.3072 16.9428 39.0571C16.6928 38.8071 16.3536 38.6666 16 38.6666C15.6464 38.6666 15.3072 38.8071 15.0572 39.0571C14.8071 39.3072 14.6667 39.6463 14.6667 39.9999V45.3173C14.6858 45.4978 14.6647 45.6803 14.6047 45.8516C14.5447 46.0229 14.4474 46.1788 14.3198 46.3079C14.1922 46.437 14.0375 46.5362 13.8669 46.5982C13.6963 46.6602 13.5141 46.6836 13.3333 46.6666C13.1539 46.6842 12.9727 46.6618 12.803 46.601C12.6332 46.5403 12.479 46.4426 12.3515 46.3151C12.224 46.1876 12.1263 46.0334 12.0655 45.8636C12.0048 45.6939 11.9824 45.5127 12 45.3333V34.6666C12 34.313 11.8595 33.9738 11.6095 33.7238C11.3594 33.4737 11.0203 33.3333 10.6667 33.3333Z" fill="#0F506E"/>
<path d="M26.6667 33.3333C26.313 33.3333 25.9739 33.4737 25.7239 33.7238C25.4738 33.9738 25.3333 34.313 25.3333 34.6666V45.3333C25.3178 45.8627 25.4107 46.3898 25.6063 46.8821C25.8018 47.3744 26.0959 47.8216 26.4704 48.1961C26.845 48.5707 27.2922 48.8648 27.7845 49.0603C28.2768 49.2559 28.8038 49.3487 29.3333 49.3333C30.3113 49.3656 31.2648 49.0243 32 48.3786C32.7352 49.0243 33.6887 49.3656 34.6667 49.3333C35.1962 49.3487 35.7232 49.2559 36.2155 49.0603C36.7078 48.8648 37.155 48.5707 37.5296 48.1961C37.9041 47.8216 38.1982 47.3744 38.3937 46.8821C38.5893 46.3898 38.6821 45.8627 38.6667 45.3333V34.6666C38.6667 34.313 38.5262 33.9738 38.2761 33.7238C38.0261 33.4737 37.687 33.3333 37.3333 33.3333C36.9797 33.3333 36.6406 33.4737 36.3905 33.7238C36.1405 33.9738 36 34.313 36 34.6666V45.3173C36.0021 45.6709 35.8637 46.0109 35.6151 46.2624C35.3666 46.514 35.0283 46.6565 34.6747 46.6586C34.321 46.6607 33.9811 46.5223 33.7295 46.2737C33.478 46.0252 33.3354 45.6869 33.3333 45.3333V39.9999C33.3333 39.6463 33.1929 39.3072 32.9428 39.0571C32.6928 38.8071 32.3536 38.6666 32 38.6666C31.6464 38.6666 31.3072 38.8071 31.0572 39.0571C30.8071 39.3072 30.6667 39.6463 30.6667 39.9999V45.3173C30.6688 45.6709 30.5303 46.0109 30.2818 46.2624C30.0332 46.514 29.695 46.6565 29.3413 46.6586C28.9877 46.6607 28.6477 46.5223 28.3962 46.2737C28.1446 46.0252 28.0021 45.6869 28 45.3333V34.6666C28 34.313 27.8595 33.9738 27.6095 33.7238C27.3594 33.4737 27.0203 33.3333 26.6667 33.3333Z" fill="#0F506E"/>
<path d="M42.6667 33.3333C42.313 33.3333 41.9739 33.4737 41.7239 33.7238C41.4738 33.9738 41.3333 34.313 41.3333 34.6666V45.3333C41.3178 45.8627 41.4107 46.3898 41.6063 46.8821C41.8018 47.3744 42.0959 47.8216 42.4704 48.1961C42.845 48.5707 43.2922 48.8648 43.7845 49.0603C44.2768 49.2559 44.8038 49.3487 45.3333 49.3333C46.3113 49.3656 47.2648 49.0243 48 48.3786C48.7352 49.0243 49.6887 49.3656 50.6667 49.3333C51.1961 49.3487 51.7232 49.2559 52.2155 49.0603C52.7078 48.8648 53.155 48.5707 53.5296 48.1961C53.9041 47.8216 54.1982 47.3744 54.3937 46.8821C54.5893 46.3898 54.6821 45.8627 54.6667 45.3333V34.6666C54.6667 34.313 54.5262 33.9738 54.2761 33.7238C54.0261 33.4737 53.6869 33.3333 53.3333 33.3333C52.9797 33.3333 52.6406 33.4737 52.3905 33.7238C52.1405 33.9738 52 34.313 52 34.6666V45.3173C52.0021 45.6709 51.8637 46.0109 51.6151 46.2624C51.3666 46.514 51.0283 46.6565 50.6747 46.6586C50.321 46.6607 49.9811 46.5223 49.7295 46.2737C49.478 46.0252 49.3354 45.6869 49.3333 45.3333V39.9999C49.3333 39.6463 49.1929 39.3072 48.9428 39.0571C48.6928 38.8071 48.3536 38.6666 48 38.6666C47.6464 38.6666 47.3072 38.8071 47.0572 39.0571C46.8071 39.3072 46.6667 39.6463 46.6667 39.9999V45.3173C46.6688 45.6709 46.5303 46.0109 46.2818 46.2624C46.0332 46.514 45.6949 46.6565 45.3413 46.6586C44.9877 46.6607 44.6477 46.5223 44.3962 46.2737C44.1446 46.0252 44.0021 45.6869 44 45.3333V34.6666C44 34.313 43.8595 33.9738 43.6095 33.7238C43.3594 33.4737 43.0203 33.3333 42.6667 33.3333Z" fill="#0F506E"/>
</g>
<defs>
<clipPath id="clip0_419_88">
<rect width="64" height="64" fill="white"/>
</clipPath>
</defs>
</svg>
