<svg width="50" height="50" viewBox="0 0 50 50" fill="none" xmlns="http://www.w3.org/2000/svg">
<g clip-path="url(#clip0_418_5)">
<path d="M40.6779 35.9375V47.6562C40.6779 48.5156 39.9152 49.2188 38.983 49.2188H2.54233C1.61012 49.2188 0.847412 48.5156 0.847412 47.6562V2.34375C0.847412 1.48437 1.61012 0.78125 2.54233 0.78125H24.4915L40.6779 14.9219V26.5625" stroke="#0F506E" stroke-width="2"/>
<path d="M40.6779 15.5469H26.2711C25.3389 15.5469 24.5762 14.8437 24.5762 13.9844V1.5625" stroke="#0F506E" stroke-width="2"/>
<path d="M8.47449 14.0625H19.4914" stroke="#0F506E" stroke-width="2"/>
<path d="M8.47449 21.875H34.7457" stroke="#0F506E" stroke-width="2"/>
<path d="M8.47449 27.3438H34.7457" stroke="#0F506E" stroke-width="2"/>
<path d="M8.47449 34.375H28.8135" stroke="#0F506E" stroke-width="2"/>
<path d="M8.47449 39.0625H22.8813" stroke="#0F506E" stroke-width="2"/>
<path d="M23.7288 46.875L27.0338 39.5313L44.2372 23.6719C44.5762 23.3594 45.1694 23.3594 45.5932 23.6719L48.8983 26.7187C49.2372 27.0312 49.2372 27.5781 48.8983 27.9688L31.6949 43.8281L23.7288 46.875Z" stroke="#0F506E" stroke-width="2" stroke-linejoin="round"/>
<path d="M42.2881 25.5469L46.8644 29.7656" stroke="#0F506E" stroke-width="2"/>
</g>
<defs>
<clipPath id="clip0_418_5">
<rect width="50" height="50" fill="white"/>
</clipPath>
</defs>
</svg>
