<svg width="64" height="64" viewBox="0 0 64 64" fill="none" xmlns="http://www.w3.org/2000/svg">
<path d="M56 6.66663H1.33334" stroke="#0F506E" stroke-width="2" stroke-linecap="round" stroke-linejoin="round"/>
<path d="M24.1342 24.0833H29.4675" stroke="#0F506E" stroke-width="2" stroke-miterlimit="10"/>
<path d="M21.4675 24.0833H12.1342" stroke="#0F506E" stroke-width="2" stroke-miterlimit="10"/>
<path d="M5.46753 29.4166H13.3333" stroke="#0F506E" stroke-width="2" stroke-miterlimit="10"/>
<path d="M16 29.4166H24" stroke="#0F506E" stroke-width="2" stroke-miterlimit="10"/>
<path d="M35.0173 36.3507L31.684 40.3507L35.0173 44.3507" stroke="#0F506E" stroke-width="2" stroke-linecap="round" stroke-linejoin="round"/>
<path d="M47.684 36.3507L51.0173 40.3507L47.684 44.3507" stroke="#0F506E" stroke-width="2" stroke-linecap="round" stroke-linejoin="round"/>
<path d="M40.0179 44.3513L42.6846 36.3513" stroke="#0F506E" stroke-width="2" stroke-linecap="round" stroke-linejoin="round"/>
<path d="M41.0179 55.6846C49.4863 55.6846 56.3513 48.8196 56.3513 40.3513C56.3513 31.8829 49.4863 25.0179 41.0179 25.0179C32.5496 25.0179 25.6846 31.8829 25.6846 40.3513C25.6846 48.8196 32.5496 55.6846 41.0179 55.6846Z" stroke="#0F506E" stroke-width="2" stroke-miterlimit="10"/>
<path d="M51.5833 51.5834L62.7027 62.7027" stroke="#0F506E" stroke-width="2" stroke-linecap="round" stroke-linejoin="round"/>
<path d="M24.1342 24.0833H29.4675" stroke="#0F506E" stroke-width="2" stroke-miterlimit="10"/>
<path d="M21.4675 24.0833H12.1342" stroke="#0F506E" stroke-width="2" stroke-miterlimit="10"/>
<path d="M5.46753 29.4166H13.3333" stroke="#0F506E" stroke-width="2" stroke-miterlimit="10"/>
<path d="M16 29.4166H24" stroke="#0F506E" stroke-width="2" stroke-miterlimit="10"/>
<path d="M5.46753 40H9.46753" stroke="#0F506E" stroke-width="2" stroke-miterlimit="10"/>
<path d="M12.1342 40H21.3333" stroke="#0F506E" stroke-width="2" stroke-miterlimit="10"/>
<path d="M21.4675 45.3334H12.1342" stroke="#0F506E" stroke-width="2" stroke-miterlimit="10"/>
<path d="M5.46753 50.6666H9.33334" stroke="#0F506E" stroke-width="2" stroke-miterlimit="10"/>
<path d="M12 50.6666H24" stroke="#0F506E" stroke-width="2" stroke-miterlimit="10"/>
<path d="M12 34.6666H21.3333" stroke="#0F506E" stroke-width="2" stroke-miterlimit="10"/>
<path d="M21.4675 56H12.1342" stroke="#0F506E" stroke-width="2" stroke-miterlimit="10"/>
<path d="M5.46753 13.3334H9.46753" stroke="#0F506E" stroke-width="2" stroke-miterlimit="10"/>
<path d="M12.1342 13.3334H37.3333" stroke="#0F506E" stroke-width="2" stroke-miterlimit="10"/>
<path d="M5.46753 13.3334H9.46753" stroke="#0F506E" stroke-width="2" stroke-miterlimit="10"/>
<path d="M12.1342 13.3334H37.3333" stroke="#0F506E" stroke-width="2" stroke-miterlimit="10"/>
<path d="M24.1342 18.6666H42.6667" stroke="#0F506E" stroke-width="2" stroke-miterlimit="10"/>
<path d="M21.4675 18.6666H12.1342" stroke="#0F506E" stroke-width="2" stroke-miterlimit="10"/>
<path d="M24.1342 18.6666H42.6667" stroke="#0F506E" stroke-width="2" stroke-miterlimit="10"/>
<path d="M21.4675 18.6666H12.1342" stroke="#0F506E" stroke-width="2" stroke-miterlimit="10"/>
<path d="M56 26.6667V1.33337H1.33334V62.6667H48" stroke="#0F506E" stroke-width="2" stroke-linecap="round" stroke-linejoin="round"/>
</svg>
