<svg width="64" height="64" viewBox="0 0 64 64" fill="none" xmlns="http://www.w3.org/2000/svg">
<g clip-path="url(#clip0_474_131)">
<rect width="64" height="64" fill="white"/>
<path d="M282 -268.2H-218V332.1H282V-268.2Z" fill="white"/>
<path d="M51.1 51.4C51.2 51.4 51.4 51.3 51.4 51.1V12.8C51.4 12.7 51.3 12.5 51.1 12.5H12.9C12.8 12.5 12.6 12.6 12.6 12.8V51.1C12.6 51.2 12.7 51.4 12.9 51.4H51.1V51.4Z" stroke="#0F506E" stroke-width="2" stroke-miterlimit="10"/>
<path d="M12.6 19.4H51.4" stroke="#0F506E" stroke-width="2" stroke-miterlimit="10"/>
<path d="M16.3 15.7H18.7" stroke="#0F506E" stroke-width="2" stroke-miterlimit="10"/>
<path d="M20.2 15.7H22.6" stroke="#0F506E" stroke-width="2" stroke-miterlimit="10"/>
<path d="M24.2 15.7H26.6" stroke="#0F506E" stroke-width="2" stroke-miterlimit="10"/>
<path d="M22 31.4C23.1598 31.4 24.1 30.4597 24.1 29.2999C24.1 28.1402 23.1598 27.2 22 27.2C20.8402 27.2 19.9 28.1402 19.9 29.2999C19.9 30.4597 20.8402 31.4 22 31.4Z" stroke="#0F506E" stroke-width="2" stroke-miterlimit="10"/>
<path d="M32 45.6C33.1598 45.6 34.1 44.6598 34.1 43.5C34.1 42.3402 33.1598 41.4 32 41.4C30.8402 41.4 29.9 42.3402 29.9 43.5C29.9 44.6598 30.8402 45.6 32 45.6Z" stroke="#0F506E" stroke-width="2" stroke-miterlimit="10"/>
<path d="M42.1 37.1C43.2598 37.1 44.2 36.1598 44.2 35C44.2 33.8402 43.2598 32.9 42.1 32.9C40.9402 32.9 40 33.8402 40 35C40 36.1598 40.9402 37.1 42.1 37.1Z" stroke="#0F506E" stroke-width="2" stroke-miterlimit="10"/>
<path d="M22 33.9V45.6" stroke="#0F506E" stroke-width="2" stroke-miterlimit="10"/>
<path d="M31.7 27.3V39.7001" stroke="#0F506E" stroke-width="2" stroke-miterlimit="10"/>
<path d="M42.1 39.1V45.6" stroke="#0F506E" stroke-width="2" stroke-miterlimit="10"/>
<path d="M42.1 27.3V31.4" stroke="#0F506E" stroke-width="2" stroke-miterlimit="10"/>
<path d="M-65.4794 19.0001L-67.0824 14.1001H-65.9064L-64.5134 18.4401H-65.1014L-63.6454 14.1001H-62.5954L-61.1954 18.4401H-61.7624L-60.3344 14.1001H-59.2494L-60.8524 19.0001H-62.0704L-63.3094 15.1921H-62.9874L-64.2614 19.0001H-65.4794ZM-57.5733 16.0741H-55.2143V16.9561H-57.5733V16.0741ZM-57.4893 18.0901H-54.8223V19.0001H-58.6163V14.1001H-54.9133V15.0101H-57.4893V18.0901ZM-53.92 19.0001V14.1001H-51.526C-50.91 14.1001 -50.448 14.2168 -50.14 14.4501C-49.8274 14.6835 -49.671 14.9915 -49.671 15.3741C-49.671 15.6308 -49.734 15.8548 -49.86 16.0461C-49.986 16.2328 -50.1587 16.3775 -50.378 16.4801C-50.5974 16.5828 -50.8494 16.6341 -51.134 16.6341L-51.001 16.3471C-50.693 16.3471 -50.42 16.3985 -50.182 16.5011C-49.944 16.5991 -49.7597 16.7461 -49.629 16.9421C-49.4937 17.1381 -49.426 17.3785 -49.426 17.6631C-49.426 18.0831 -49.5917 18.4121 -49.923 18.6501C-50.2544 18.8835 -50.742 19.0001 -51.386 19.0001H-53.92ZM-52.793 18.1461H-51.47C-51.176 18.1461 -50.9544 18.0995 -50.805 18.0061C-50.651 17.9081 -50.574 17.7541 -50.574 17.5441C-50.574 17.3388 -50.651 17.1871 -50.805 17.0891C-50.9544 16.9865 -51.176 16.9351 -51.47 16.9351H-52.877V16.1091H-51.666C-51.3907 16.1091 -51.1807 16.0625 -51.036 15.9691C-50.8867 15.8711 -50.812 15.7241 -50.812 15.5281C-50.812 15.3368 -50.8867 15.1945 -51.036 15.1011C-51.1807 15.0031 -51.3907 14.9541 -51.666 14.9541H-52.793V18.1461ZM-46.1875 19.0841C-46.5748 19.0841 -46.9342 19.0211 -47.2655 18.8951C-47.5922 18.7691 -47.8768 18.5918 -48.1195 18.3631C-48.3575 18.1345 -48.5442 17.8661 -48.6795 17.5581C-48.8102 17.2501 -48.8755 16.9141 -48.8755 16.5501C-48.8755 16.1861 -48.8102 15.8501 -48.6795 15.5421C-48.5442 15.2341 -48.3552 14.9658 -48.1125 14.7371C-47.8698 14.5085 -47.5852 14.3311 -47.2585 14.2051C-46.9318 14.0791 -46.5772 14.0161 -46.1945 14.0161C-45.8072 14.0161 -45.4525 14.0791 -45.1305 14.2051C-44.8038 14.3311 -44.5215 14.5085 -44.2835 14.7371C-44.0408 14.9658 -43.8518 15.2341 -43.7165 15.5421C-43.5812 15.8455 -43.5135 16.1815 -43.5135 16.5501C-43.5135 16.9141 -43.5812 17.2525 -43.7165 17.5651C-43.8518 17.8731 -44.0408 18.1415 -44.2835 18.3701C-44.5215 18.5941 -44.8038 18.7691 -45.1305 18.8951C-45.4525 19.0211 -45.8048 19.0841 -46.1875 19.0841ZM-46.1945 18.1181C-45.9752 18.1181 -45.7745 18.0808 -45.5925 18.0061C-45.4058 17.9315 -45.2425 17.8241 -45.1025 17.6841C-44.9625 17.5441 -44.8552 17.3785 -44.7805 17.1871C-44.7012 16.9958 -44.6615 16.7835 -44.6615 16.5501C-44.6615 16.3168 -44.7012 16.1045 -44.7805 15.9131C-44.8552 15.7218 -44.9625 15.5561 -45.1025 15.4161C-45.2378 15.2761 -45.3988 15.1688 -45.5855 15.0941C-45.7722 15.0195 -45.9752 14.9821 -46.1945 14.9821C-46.4138 14.9821 -46.6168 15.0195 -46.8035 15.0941C-46.9855 15.1688 -47.1465 15.2761 -47.2865 15.4161C-47.4265 15.5561 -47.5362 15.7218 -47.6155 15.9131C-47.6902 16.1045 -47.7275 16.3168 -47.7275 16.5501C-47.7275 16.7788 -47.6902 16.9911 -47.6155 17.1871C-47.5362 17.3785 -47.4288 17.5441 -47.2935 17.6841C-47.1535 17.8241 -46.9902 17.9315 -46.8035 18.0061C-46.6168 18.0808 -46.4138 18.1181 -46.1945 18.1181ZM-42.6612 19.0001V14.1001H-40.5402C-40.1016 14.1001 -39.7236 14.1725 -39.4062 14.3171C-39.0889 14.4571 -38.8439 14.6601 -38.6712 14.9261C-38.4986 15.1921 -38.4122 15.5095 -38.4122 15.8781C-38.4122 16.2421 -38.4986 16.5571 -38.6712 16.8231C-38.8439 17.0891 -39.0889 17.2945 -39.4062 17.4391C-39.7236 17.5791 -40.1016 17.6491 -40.5402 17.6491H-42.0312L-41.5272 17.1381V19.0001H-42.6612ZM-41.5272 17.2641L-42.0312 16.7251H-40.6032C-40.2532 16.7251 -39.9919 16.6505 -39.8192 16.5011C-39.6466 16.3518 -39.5602 16.1441 -39.5602 15.8781C-39.5602 15.6075 -39.6466 15.3975 -39.8192 15.2481C-39.9919 15.0988 -40.2532 15.0241 -40.6032 15.0241H-42.0312L-41.5272 14.4851V17.2641ZM-36.7175 19.0001V15.0241H-38.2855V14.1001H-34.0155V15.0241H-35.5835V19.0001H-36.7175ZM-33.4054 19.0001V14.1001H-32.2714V19.0001H-33.4054ZM-31.1085 19.0001V14.1001H-30.1705L-28.0845 17.5581H-28.5815L-26.5305 14.1001H-25.5995L-25.5855 19.0001H-26.6495L-26.6565 15.7311H-26.4605L-28.0985 18.4821H-28.6095L-30.2825 15.7311H-30.0445V19.0001H-31.1085ZM-24.423 19.0001V14.1001H-23.289V19.0001H-24.423ZM-22.4411 19.0001V18.2651L-19.4101 14.6111L-19.2701 15.0241H-22.3851V14.1001H-18.2621V14.8351L-21.2861 18.4891L-21.4261 18.0761H-18.1571V19.0001H-22.4411ZM-18.0738 19.0001L-15.8898 14.1001H-14.7698L-12.5788 19.0001H-13.7688L-15.5608 14.6741H-15.1128L-16.9118 19.0001H-18.0738ZM-16.9818 17.9501L-16.6808 17.0891H-14.1608L-13.8528 17.9501H-16.9818ZM-11.3015 19.0001V15.0241H-12.8695V14.1001H-8.59952V15.0241H-10.1675V19.0001H-11.3015ZM-7.98937 19.0001V14.1001H-6.85537V19.0001H-7.98937ZM-3.3125 19.0841C-3.69983 19.0841 -4.05917 19.0211 -4.3905 18.8951C-4.71717 18.7691 -5.00183 18.5918 -5.2445 18.3631C-5.4825 18.1345 -5.66917 17.8661 -5.8045 17.5581C-5.93517 17.2501 -6.0005 16.9141 -6.0005 16.5501C-6.0005 16.1861 -5.93517 15.8501 -5.8045 15.5421C-5.66917 15.2341 -5.48017 14.9658 -5.2375 14.7371C-4.99483 14.5085 -4.71017 14.3311 -4.3835 14.2051C-4.05683 14.0791 -3.70217 14.0161 -3.3195 14.0161C-2.93217 14.0161 -2.5775 14.0791 -2.2555 14.2051C-1.92883 14.3311 -1.6465 14.5085 -1.4085 14.7371C-1.16583 14.9658 -0.976832 15.2341 -0.841498 15.5421C-0.706165 15.8455 -0.638498 16.1815 -0.638498 16.5501C-0.638498 16.9141 -0.706165 17.2525 -0.841498 17.5651C-0.976832 17.8731 -1.16583 18.1415 -1.4085 18.3701C-1.6465 18.5941 -1.92883 18.7691 -2.2555 18.8951C-2.5775 19.0211 -2.92983 19.0841 -3.3125 19.0841ZM-3.3195 18.1181C-3.10017 18.1181 -2.8995 18.0808 -2.7175 18.0061C-2.53083 17.9315 -2.3675 17.8241 -2.2275 17.6841C-2.0875 17.5441 -1.98016 17.3785 -1.9055 17.1871C-1.82617 16.9958 -1.7865 16.7835 -1.7865 16.5501C-1.7865 16.3168 -1.82617 16.1045 -1.9055 15.9131C-1.98016 15.7218 -2.0875 15.5561 -2.2275 15.4161C-2.36283 15.2761 -2.52383 15.1688 -2.7105 15.0941C-2.89717 15.0195 -3.10017 14.9821 -3.3195 14.9821C-3.53883 14.9821 -3.74183 15.0195 -3.9285 15.0941C-4.1105 15.1688 -4.2715 15.2761 -4.4115 15.4161C-4.5515 15.5561 -4.66117 15.7218 -4.7405 15.9131C-4.81517 16.1045 -4.8525 16.3168 -4.8525 16.5501C-4.8525 16.7788 -4.81517 16.9911 -4.7405 17.1871C-4.66117 17.3785 -4.55383 17.5441 -4.4185 17.6841C-4.2785 17.8241 -4.11517 17.9315 -3.9285 18.0061C-3.74183 18.0808 -3.53883 18.1181 -3.3195 18.1181ZM0.213751 19.0001V14.1001H1.15175L4.04275 17.6281H3.58775V14.1001H4.70775V19.0001H3.77675L0.878751 15.4721H1.33375V19.0001H0.213751Z" fill="#0F506E"/>
<path d="M18.7323 19V15.024H17.1643V14.1H21.4343V15.024H19.8663V19H18.7323ZM23.0874 16.074H25.4464V16.956H23.0874V16.074ZM23.1714 18.09H25.8384V19H22.0444V14.1H25.7474V15.01H23.1714V18.09ZM28.3507 19.084C27.9587 19.084 27.5831 19.0327 27.2237 18.93C26.8644 18.8227 26.5751 18.685 26.3557 18.517L26.7407 17.663C26.9507 17.8123 27.1981 17.936 27.4827 18.034C27.7721 18.1273 28.0637 18.174 28.3577 18.174C28.5817 18.174 28.7614 18.153 28.8967 18.111C29.0367 18.0643 29.1394 18.0013 29.2047 17.922C29.2701 17.8427 29.3027 17.7517 29.3027 17.649C29.3027 17.5183 29.2514 17.4157 29.1487 17.341C29.0461 17.2617 28.9107 17.1987 28.7427 17.152C28.5747 17.1007 28.3881 17.054 28.1827 17.012C27.9821 16.9653 27.7791 16.9093 27.5737 16.844C27.3731 16.7787 27.1887 16.6947 27.0207 16.592C26.8527 16.4893 26.7151 16.354 26.6077 16.186C26.5051 16.018 26.4537 15.8033 26.4537 15.542C26.4537 15.262 26.5284 15.0077 26.6777 14.779C26.8317 14.5457 27.0604 14.3613 27.3637 14.226C27.6717 14.086 28.0567 14.016 28.5187 14.016C28.8267 14.016 29.1301 14.0533 29.4287 14.128C29.7274 14.198 29.9911 14.3053 30.2197 14.45L29.8697 15.311C29.6411 15.1803 29.4124 15.0847 29.1837 15.024C28.9551 14.9587 28.7311 14.926 28.5117 14.926C28.2924 14.926 28.1127 14.9517 27.9727 15.003C27.8327 15.0543 27.7324 15.122 27.6717 15.206C27.6111 15.2853 27.5807 15.3787 27.5807 15.486C27.5807 15.612 27.6321 15.7147 27.7347 15.794C27.8374 15.8687 27.9727 15.9293 28.1407 15.976C28.3087 16.0227 28.4931 16.0693 28.6937 16.116C28.8991 16.1627 29.1021 16.2163 29.3027 16.277C29.5081 16.3377 29.6947 16.4193 29.8627 16.522C30.0307 16.6247 30.1661 16.76 30.2687 16.928C30.3761 17.096 30.4297 17.3083 30.4297 17.565C30.4297 17.8403 30.3527 18.0923 30.1987 18.321C30.0447 18.5497 29.8137 18.734 29.5057 18.874C29.2024 19.014 28.8174 19.084 28.3507 19.084ZM32.1512 19V15.024H30.5832V14.1H34.8532V15.024H33.2852V19H32.1512ZM35.4634 19V14.1H36.5974V19H35.4634ZM37.7603 19V14.1H38.6983L41.5893 17.628H41.1343V14.1H42.2543V19H41.3233L38.4253 15.472H38.8803V19H37.7603ZM45.7796 19.084C45.3922 19.084 45.0352 19.0233 44.7086 18.902C44.3866 18.776 44.1042 18.5987 43.8616 18.37C43.6236 18.1413 43.4369 17.873 43.3016 17.565C43.1709 17.257 43.1056 16.9187 43.1056 16.55C43.1056 16.1813 43.1709 15.843 43.3016 15.535C43.4369 15.227 43.6259 14.9587 43.8686 14.73C44.1112 14.5013 44.3959 14.3263 44.7226 14.205C45.0492 14.079 45.4086 14.016 45.8006 14.016C46.2346 14.016 46.6242 14.0883 46.9696 14.233C47.3196 14.3777 47.6136 14.5877 47.8516 14.863L47.1236 15.535C46.9462 15.3483 46.7526 15.2107 46.5426 15.122C46.3326 15.0287 46.1039 14.982 45.8566 14.982C45.6186 14.982 45.4016 15.0193 45.2056 15.094C45.0096 15.1687 44.8392 15.276 44.6946 15.416C44.5546 15.556 44.4449 15.7217 44.3656 15.913C44.2909 16.1043 44.2536 16.3167 44.2536 16.55C44.2536 16.7787 44.2909 16.9887 44.3656 17.18C44.4449 17.3713 44.5546 17.5393 44.6946 17.684C44.8392 17.824 45.0072 17.9313 45.1986 18.006C45.3946 18.0807 45.6092 18.118 45.8426 18.118C46.0666 18.118 46.2836 18.083 46.4936 18.013C46.7082 17.9383 46.9159 17.8147 47.1166 17.642L47.7606 18.461C47.4946 18.6617 47.1842 18.8157 46.8296 18.923C46.4796 19.0303 46.1296 19.084 45.7796 19.084ZM46.7246 18.314V16.473H47.7606V18.461L46.7246 18.314Z" fill="#0F506E"/>
</g>
<defs>
<clipPath id="clip0_474_131">
<rect width="64" height="64" fill="white"/>
</clipPath>
</defs>
</svg>
