<svg width="64" height="64" viewBox="0 0 64 64" fill="none" xmlns="http://www.w3.org/2000/svg">
<path d="M49.8475 32.5988V30C49.8475 29.8233 49.7773 29.6538 49.6523 29.5289C49.5274 29.404 49.3579 29.3338 49.1812 29.3338H46.6325V23.0838C46.6118 21.7748 46.0772 20.5265 45.1443 19.6082C44.2113 18.6899 42.9547 18.1752 41.6456 18.1752C40.3365 18.1752 39.0799 18.6899 38.1469 19.6082C37.214 20.5265 36.6795 21.7748 36.6587 23.0838V24.0438C36.423 23.8234 36.1724 23.6196 35.9087 23.4338V17.6025C35.918 17.0836 35.8238 16.568 35.6316 16.0858C35.4395 15.6037 35.1532 15.1647 34.7895 14.7944C34.4258 14.4242 33.9919 14.13 33.5133 13.9293C33.0347 13.7285 32.5209 13.6251 32.0019 13.6251C31.4828 13.6251 30.969 13.7285 30.4904 13.9293C30.0118 14.13 29.5779 14.4242 29.2142 14.7944C28.8505 15.1647 28.5642 15.6037 28.3721 16.0858C28.1799 16.568 28.0857 17.0836 28.095 17.6025V23.4238C27.8318 23.6103 27.5812 23.8141 27.345 24.0338V23.075C27.3243 21.7661 26.7897 20.5178 25.8568 19.5995C24.9238 18.6812 23.6672 18.1665 22.3581 18.1665C21.049 18.1665 19.7924 18.6812 18.8594 19.5995C17.9265 20.5178 17.392 21.7661 17.3712 23.075V29.325H14.82C14.7325 29.325 14.6459 29.3422 14.565 29.3757C14.4842 29.4092 14.4107 29.4583 14.3489 29.5201C14.287 29.582 14.2379 29.6555 14.2045 29.7363C14.171 29.8171 14.1537 29.9038 14.1537 29.9913V32.5938C13.4774 32.7454 12.8727 33.1225 12.4389 33.6631C12.0051 34.2036 11.7679 34.8756 11.7662 35.5688C11.7662 35.7455 11.8364 35.9149 11.9614 36.0399C12.0863 36.1648 12.2558 36.235 12.4325 36.235H17.2062C17.3829 36.235 17.5524 36.1648 17.6773 36.0399C17.8023 35.9149 17.8725 35.7455 17.8725 35.5688C17.8709 34.8758 17.6339 34.2039 17.2003 33.6634C16.7667 33.1228 16.1623 32.7457 15.4862 32.5938V30.6625H24.9412V38.875H21.9525C21.7758 38.875 21.6063 38.9452 21.4814 39.0701C21.3564 39.1951 21.2862 39.3646 21.2862 39.5413V45.8625C20.3965 46.0187 19.5901 46.4831 19.0085 47.1742C18.4268 47.8653 18.1069 48.7392 18.105 49.6425C18.105 49.8192 18.1752 49.9887 18.3001 50.1136C18.4251 50.2386 18.5945 50.3088 18.7712 50.3088H25.1337C25.3104 50.3088 25.4799 50.2386 25.6048 50.1136C25.7298 49.9887 25.8 49.8192 25.8 49.6425C25.7994 48.7394 25.4809 47.8652 24.9004 47.1734C24.3199 46.4815 23.5143 46.0161 22.625 45.8588V40.2038H31.34V45.8588C30.4502 46.0149 29.6439 46.4793 29.0622 47.1704C28.4805 47.8616 28.1607 48.7354 28.1587 49.6388C28.1587 49.8155 28.2289 49.9849 28.3539 50.1099C28.4788 50.2348 28.6483 50.305 28.825 50.305H35.1887C35.3654 50.305 35.5349 50.2348 35.6598 50.1099C35.7848 49.9849 35.855 49.8155 35.855 49.6388C35.8527 48.7353 35.5326 47.8615 34.9507 47.1703C34.3689 46.4792 33.5623 46.0149 32.6725 45.8588V40.2038H41.3887V45.8588C40.499 46.0149 39.6926 46.4793 39.1109 47.1704C38.5293 47.8616 38.2094 48.7354 38.2075 49.6388C38.2075 49.8155 38.2777 49.9849 38.4026 50.1099C38.5276 50.2348 38.697 50.305 38.8737 50.305H45.2362C45.4129 50.305 45.5824 50.2348 45.7073 50.1099C45.8323 49.9849 45.9025 49.8155 45.9025 49.6388C45.9005 48.7354 45.5807 47.8616 44.999 47.1704C44.4173 46.4793 43.611 46.0149 42.7212 45.8588V39.5375C42.7212 39.3608 42.651 39.1913 42.5261 39.0664C42.4011 38.9415 42.2317 38.8713 42.055 38.8713H39.0587V30.6625H48.515V32.5988C47.8382 32.7499 47.2329 33.1268 46.7986 33.6674C46.3643 34.208 46.1267 34.8803 46.125 35.5738C46.125 35.7505 46.1952 35.9199 46.3201 36.0449C46.4451 36.1698 46.6145 36.24 46.7912 36.24H51.5637C51.7404 36.24 51.9099 36.1698 52.0348 36.0449C52.1598 35.9199 52.23 35.7505 52.23 35.5738C52.2286 34.8813 51.9921 34.2099 51.5593 33.6694C51.1264 33.1289 50.5229 32.7514 49.8475 32.5988ZM16.405 34.9063H13.2337C13.3654 34.5945 13.586 34.3285 13.868 34.1415C14.1501 33.9545 14.481 33.8547 14.8194 33.8547C15.1578 33.8547 15.4887 33.9545 15.7707 34.1415C16.0527 34.3285 16.2733 34.5945 16.405 34.9063ZM24.375 48.9725H19.525C19.671 48.4414 19.9874 47.9729 20.4255 47.639C20.8636 47.3051 21.3992 47.1243 21.95 47.1243C22.5008 47.1243 23.0364 47.3051 23.4745 47.639C23.9126 47.9729 24.2289 48.4414 24.375 48.9725ZM34.4237 48.9725H29.575C29.7215 48.4416 30.0381 47.9734 30.4762 47.6398C30.9144 47.3062 31.4499 47.1255 32.0006 47.1255C32.5513 47.1255 33.0868 47.3062 33.525 47.6398C33.9632 47.9734 34.2798 48.4416 34.4262 48.9725H34.4237ZM44.4712 48.9725H39.625C39.771 48.4414 40.0874 47.9729 40.5255 47.639C40.9636 47.3051 41.4992 47.1243 42.05 47.1243C42.6008 47.1243 43.1364 47.3051 43.5745 47.639C44.0126 47.9729 44.3289 48.4414 44.475 48.9725H44.4712ZM29.4237 17.5975C29.4162 17.2547 29.4772 16.9138 29.6032 16.5948C29.7291 16.2759 29.9176 15.9853 30.1574 15.7401C30.3972 15.495 30.6835 15.3002 30.9996 15.1673C31.3157 15.0343 31.6552 14.9658 31.9981 14.9658C32.341 14.9658 32.6805 15.0343 32.9966 15.1673C33.3127 15.3002 33.5991 15.495 33.8389 15.7401C34.0787 15.9853 34.2671 16.2759 34.3931 16.5948C34.519 16.9138 34.58 17.2547 34.5725 17.5975V22.735C32.9216 22.0651 31.0746 22.0651 29.4237 22.735V17.5975ZM32 23.57C33.5182 23.5717 34.9737 24.1755 36.0472 25.249C37.1207 26.3225 37.7246 27.7781 37.7262 29.2963V38.875H34.325V30.4538L35.7587 28.6863C35.8619 28.5481 35.9076 28.3754 35.8863 28.2042C35.8649 28.0331 35.7782 27.8769 35.6442 27.7683C35.5103 27.6597 35.3395 27.6072 35.1677 27.6217C34.9958 27.6363 34.8363 27.7167 34.7225 27.8463L33.14 29.7975C33.0436 29.9162 32.991 30.0646 32.9912 30.2175V38.875H31.375V30.2175C31.3751 30.13 31.3579 30.0433 31.3245 29.9624C31.291 29.8816 31.2419 29.8081 31.18 29.7463L29.2287 27.795C29.1668 27.7331 29.0934 27.684 29.0125 27.6505C28.9317 27.617 28.845 27.5998 28.7575 27.5998C28.67 27.5998 28.5833 27.617 28.5024 27.6505C28.4216 27.684 28.3481 27.7331 28.2862 27.795C28.2243 27.8569 28.1753 27.9304 28.1418 28.0112C28.1083 28.0921 28.091 28.1787 28.091 28.2663C28.091 28.3538 28.1083 28.4404 28.1418 28.5213C28.1753 28.6022 28.2243 28.6756 28.2862 28.7375L30.0425 30.4875V38.8625H26.2737V29.2875C26.2777 27.7708 26.8826 26.3175 27.9558 25.2459C29.0291 24.1743 30.4833 23.5717 32 23.57ZM18.7012 29.33V23.08C18.7189 22.1225 19.1117 21.2102 19.7951 20.5393C20.4785 19.8685 21.3979 19.4926 22.3556 19.4926C23.3133 19.4926 24.2327 19.8685 24.9161 20.5393C25.5995 21.2102 25.9923 22.1225 26.01 23.08V25.6125C25.3164 26.7182 24.9462 27.996 24.9412 29.3013V29.335L18.7012 29.33ZM37.9912 25.61V23.075C38.0089 22.1175 38.4017 21.2052 39.0851 20.5343C39.7685 19.8635 40.6879 19.4876 41.6456 19.4876C42.6033 19.4876 43.5227 19.8635 44.2061 20.5343C44.8895 21.2052 45.2823 22.1175 45.3 23.075V29.325H39.0587V29.2913C39.053 27.9887 38.6833 26.7136 37.9912 25.61ZM47.5962 34.9063C47.7276 34.5944 47.9481 34.3283 48.23 34.1412C48.512 33.954 48.8428 33.8542 49.1812 33.8542C49.5196 33.8542 49.8505 33.954 50.1324 34.1412C50.4143 34.3283 50.6348 34.5944 50.7662 34.9063H47.5962Z" fill="#0F506E"/>
<rect x="1" y="1" width="62" height="62" stroke="#0F506E" stroke-width="2"/>
</svg>
