<svg width="64" height="64" viewBox="0 0 64 64" fill="none" xmlns="http://www.w3.org/2000/svg">
<path d="M29.8667 30.9333L26.6667 37.3335L23.4667 30.9333H22.4H21.3334V45.8668H23.4667V35.2L25.6 39.4667H26.6667H27.7334L29.8667 35.2V45.8668H32V30.9333H30.9333H29.8667Z" fill="#0F506E"/>
<path d="M57.6 24.5334H40.5333V18.1334L27.7333 3.20007H4.26667C1.91994 3.20007 0 5.12002 0 7.46674V56.5334C0 58.88 1.91994 60.8001 4.26667 60.8001H36.2667C38.6133 60.8001 40.5333 58.88 40.5333 56.5334V52.2668H57.6C61.2267 52.2668 64 49.4935 64 45.8667V30.9333C64 27.3067 61.2267 24.5334 57.6 24.5334ZM27.7333 6.40002L37.7601 18.1334H29.8667C28.8001 18.1334 27.7333 17.0668 27.7333 16.0001V6.40002ZM38.4 56.5333C38.4 57.5999 37.5467 58.6666 36.2667 58.6666H4.26667C3.20006 58.6666 2.13333 57.8133 2.13333 56.5333V7.46674C2.13333 6.40013 2.98667 5.33341 4.26667 5.33341H25.6V16.0001C25.6 18.3468 27.5199 20.2667 29.8667 20.2667H38.4V24.5334H21.3333C17.7066 24.5334 14.9333 27.3067 14.9333 30.9334V45.8667C14.9333 49.4935 17.7066 52.2668 21.3333 52.2668H38.4V56.5333ZM61.8667 45.8667C61.8667 48.2134 59.9466 50.1334 57.6 50.1334H21.3333C18.9866 50.1334 17.0667 48.2134 17.0667 45.8667V30.9333C17.0667 28.5866 18.9866 26.6666 21.3333 26.6666H57.6C59.9466 26.6666 61.8667 28.5866 61.8667 30.9333V45.8667Z" fill="#0F506E"/>
<path d="M53.3333 30.9333H51.2C48.8534 30.9333 46.9333 32.8534 46.9333 35.2H49.0667C49.0667 33.92 49.92 33.0667 51.2 33.0667H53.3333C54.6133 33.0667 55.4667 33.92 55.4667 35.2C55.4667 36.48 54.6133 37.3333 53.3333 37.3333H51.2V39.4667H53.3333C54.6133 39.4667 55.4667 40.32 55.4667 41.6C55.4667 42.88 54.6133 43.7333 53.3333 43.7333H51.2C49.92 43.7333 49.0667 42.88 49.0667 41.6H46.9333C46.9333 43.9466 48.8534 45.8667 51.2 45.8667H53.3333C55.68 45.8667 57.6 43.9466 57.6 41.6C57.6 40.32 56.9601 39.2534 56.1066 38.4C56.96 37.5466 57.6 36.4799 57.6 35.1999C57.6 32.8534 55.68 30.9333 53.3333 30.9333Z" fill="#0F506E"/>
<path d="M40.5333 30.9333H34.1333V35.2V45.8667H36.2666V39.4667H40.5333C42.8799 39.4667 44.8 37.5466 44.8 35.2C44.8 32.8534 42.8799 30.9333 40.5333 30.9333ZM40.5333 37.3335H36.2666V33.0668H40.5333C41.8133 33.0668 42.6667 33.9201 42.6667 35.2001C42.6667 36.4801 41.8133 37.3335 40.5333 37.3335Z" fill="#0F506E"/>
</svg>
