<svg width="199" height="73" viewBox="0 0 199 73" fill="none" xmlns="http://www.w3.org/2000/svg">
<path d="M140 0H48C47.4696 0 46.9609 0.210714 46.5858 0.585787C46.2107 0.960859 46 1.46957 46 2V54.1C46 54.6304 46.2107 55.1391 46.5858 55.5142C46.9609 55.8893 47.4696 56.1 48 56.1H81.64V68.1H74C73.4696 68.1 72.9609 68.3107 72.5858 68.6858C72.2107 69.0608 72 69.5696 72 70.1C72 70.6304 72.2107 71.1391 72.5858 71.5142C72.9609 71.8893 73.4696 72.1 74 72.1H114C114.53 72.1 115.039 71.8893 115.414 71.5142C115.789 71.1391 116 70.6304 116 70.1C116 69.5696 115.789 69.0608 115.414 68.6858C115.039 68.3107 114.53 68.1 114 68.1H106.36V56.1H140C140.53 56.1 141.039 55.8893 141.414 55.5142C141.789 55.1391 142 54.6304 142 54.1V2C142 1.46957 141.789 0.960859 141.414 0.585787C141.039 0.210714 140.53 0 140 0ZM102.36 68H85.64V56H102.36V68ZM138 52H50V4H138V52Z" fill="#EA6A62" fill-opacity="0.32"/>
<path d="M21.552 25.576C21.552 27.784 20.784 29.528 19.248 30.808C17.712 32.088 15.528 32.784 12.696 32.896V34.672H9.816V32.896C6.984 32.752 4.792 32.048 3.24 30.784C1.704 29.52 0.936 27.784 0.936 25.576C0.936 23.368 1.704 21.632 3.24 20.368C4.792 19.088 6.984 18.376 9.816 18.232V16.528H12.696V18.232C15.528 18.376 17.712 19.088 19.248 20.368C20.784 21.632 21.552 23.368 21.552 25.576ZM12.696 30.448C14.616 30.304 16.072 29.824 17.064 29.008C18.056 28.176 18.552 27.024 18.552 25.552C18.552 24.08 18.048 22.936 17.04 22.12C16.048 21.304 14.6 20.832 12.696 20.704V30.448ZM3.984 25.576C3.984 27.032 4.48 28.168 5.472 28.984C6.48 29.8 7.928 30.288 9.816 30.448V20.704C5.928 20.992 3.984 22.616 3.984 25.576ZM31.5966 21.04C32.8446 21.04 33.9566 21.312 34.9326 21.856C35.9246 22.4 36.7006 23.168 37.2606 24.16C37.8206 25.152 38.1006 26.296 38.1006 27.592C38.1006 28.888 37.8206 30.04 37.2606 31.048C36.7006 32.04 35.9246 32.808 34.9326 33.352C33.9566 33.896 32.8446 34.168 31.5966 34.168C29.8686 34.168 28.5006 33.592 27.4926 32.44V38.656H24.4926V21.184H27.3486V22.864C27.8446 22.256 28.4526 21.8 29.1726 21.496C29.9086 21.192 30.7166 21.04 31.5966 21.04ZM31.2606 31.6C32.3646 31.6 33.2686 31.232 33.9726 30.496C34.6926 29.76 35.0526 28.792 35.0526 27.592C35.0526 26.392 34.6926 25.424 33.9726 24.688C33.2686 23.952 32.3646 23.584 31.2606 23.584C30.5406 23.584 29.8926 23.752 29.3166 24.088C28.7406 24.408 28.2846 24.872 27.9486 25.48C27.6126 26.088 27.4446 26.792 27.4446 27.592C27.4446 28.392 27.6126 29.096 27.9486 29.704C28.2846 30.312 28.7406 30.784 29.3166 31.12C29.8926 31.44 30.5406 31.6 31.2606 31.6ZM41.0863 21.184H44.0863V29.632L51.1663 21.184H53.9023V34H50.9023V25.552L43.8463 34H41.0863V21.184ZM69.5539 21.184V34H66.5539V23.728H61.7539L61.6339 26.272C61.5539 27.968 61.3939 29.392 61.1539 30.544C60.9299 31.68 60.5379 32.584 59.9779 33.256C59.4339 33.912 58.6819 34.24 57.7219 34.24C57.2739 34.24 56.7219 34.152 56.0659 33.976L56.2099 31.456C56.4339 31.504 56.6259 31.528 56.7859 31.528C57.3939 31.528 57.8499 31.288 58.1539 30.808C58.4579 30.312 58.6499 29.728 58.7299 29.056C58.8259 28.368 58.9059 27.392 58.9699 26.128L59.1859 21.184H69.5539ZM78.3701 21.04C80.2581 21.04 81.6981 21.496 82.6901 22.408C83.6981 23.304 84.2021 24.664 84.2021 26.488V34H81.3701V32.44C81.0021 33 80.4741 33.432 79.7861 33.736C79.1141 34.024 78.2981 34.168 77.3381 34.168C76.3781 34.168 75.5381 34.008 74.8181 33.688C74.0981 33.352 73.5381 32.896 73.1381 32.32C72.7541 31.728 72.5621 31.064 72.5621 30.328C72.5621 29.176 72.9861 28.256 73.8341 27.568C74.6981 26.864 76.0501 26.512 77.8901 26.512H81.2021V26.32C81.2021 25.424 80.9301 24.736 80.3861 24.256C79.8581 23.776 79.0661 23.536 78.0101 23.536C77.2901 23.536 76.5781 23.648 75.8741 23.872C75.1861 24.096 74.6021 24.408 74.1221 24.808L72.9461 22.624C73.6181 22.112 74.4261 21.72 75.3701 21.448C76.3141 21.176 77.3141 21.04 78.3701 21.04ZM77.9621 31.984C78.7141 31.984 79.3781 31.816 79.9541 31.48C80.5461 31.128 80.9621 30.632 81.2021 29.992V28.504H78.1061C76.3781 28.504 75.5141 29.072 75.5141 30.208C75.5141 30.752 75.7301 31.184 76.1621 31.504C76.5941 31.824 77.1941 31.984 77.9621 31.984ZM87.9144 21.184H90.9144V26.392H97.3704V21.184H100.37V34H97.3704V28.936H90.9144V34H87.9144V21.184ZM110.223 34.168C108.895 34.168 107.703 33.888 106.647 33.328C105.591 32.768 104.767 31.992 104.175 31C103.583 29.992 103.287 28.856 103.287 27.592C103.287 26.328 103.583 25.2 104.175 24.208C104.767 23.216 105.583 22.44 106.623 21.88C107.679 21.32 108.879 21.04 110.223 21.04C111.487 21.04 112.591 21.296 113.535 21.808C114.495 22.32 115.215 23.056 115.695 24.016L113.391 25.36C113.023 24.768 112.559 24.328 111.999 24.04C111.455 23.736 110.855 23.584 110.199 23.584C109.079 23.584 108.151 23.952 107.415 24.688C106.679 25.408 106.311 26.376 106.311 27.592C106.311 28.808 106.671 29.784 107.391 30.52C108.127 31.24 109.063 31.6 110.199 31.6C110.855 31.6 111.455 31.456 111.999 31.168C112.559 30.864 113.023 30.416 113.391 29.824L115.695 31.168C115.199 32.128 114.471 32.872 113.511 33.4C112.567 33.912 111.471 34.168 110.223 34.168ZM130.149 27.664C130.149 27.872 130.133 28.168 130.101 28.552H120.045C120.221 29.496 120.677 30.248 121.413 30.808C122.165 31.352 123.093 31.624 124.197 31.624C125.605 31.624 126.765 31.16 127.677 30.232L129.285 32.08C128.709 32.768 127.981 33.288 127.101 33.64C126.221 33.992 125.229 34.168 124.125 34.168C122.717 34.168 121.477 33.888 120.405 33.328C119.333 32.768 118.501 31.992 117.909 31C117.333 29.992 117.045 28.856 117.045 27.592C117.045 26.344 117.325 25.224 117.885 24.232C118.461 23.224 119.253 22.44 120.261 21.88C121.269 21.32 122.405 21.04 123.669 21.04C124.917 21.04 126.029 21.32 127.005 21.88C127.997 22.424 128.765 23.2 129.309 24.208C129.869 25.2 130.149 26.352 130.149 27.664ZM123.669 23.44C122.709 23.44 121.893 23.728 121.221 24.304C120.565 24.864 120.165 25.616 120.021 26.56H127.293C127.165 25.632 126.773 24.88 126.117 24.304C125.461 23.728 124.645 23.44 123.669 23.44ZM140.534 21.04C141.782 21.04 142.894 21.312 143.87 21.856C144.862 22.4 145.638 23.168 146.198 24.16C146.758 25.152 147.038 26.296 147.038 27.592C147.038 28.888 146.758 30.04 146.198 31.048C145.638 32.04 144.862 32.808 143.87 33.352C142.894 33.896 141.782 34.168 140.534 34.168C138.806 34.168 137.438 33.592 136.43 32.44V38.656H133.43V21.184H136.286V22.864C136.782 22.256 137.39 21.8 138.11 21.496C138.846 21.192 139.654 21.04 140.534 21.04ZM140.198 31.6C141.302 31.6 142.206 31.232 142.91 30.496C143.63 29.76 143.99 28.792 143.99 27.592C143.99 26.392 143.63 25.424 142.91 24.688C142.206 23.952 141.302 23.584 140.198 23.584C139.478 23.584 138.83 23.752 138.254 24.088C137.678 24.408 137.222 24.872 136.886 25.48C136.55 26.088 136.382 26.792 136.382 27.592C136.382 28.392 136.55 29.096 136.886 29.704C137.222 30.312 137.678 30.784 138.254 31.12C138.83 31.44 139.478 31.6 140.198 31.6ZM178.185 24.856C177.353 24.856 176.601 24.688 175.929 24.352C175.257 24.016 174.729 23.552 174.345 22.96C173.977 22.368 173.793 21.696 173.793 20.944C173.793 20.192 173.977 19.52 174.345 18.928C174.729 18.336 175.257 17.872 175.929 17.536C176.601 17.2 177.353 17.032 178.185 17.032C179.033 17.032 179.785 17.2 180.441 17.536C181.113 17.872 181.633 18.336 182.001 18.928C182.385 19.52 182.577 20.192 182.577 20.944C182.577 21.696 182.385 22.368 182.001 22.96C181.633 23.552 181.113 24.016 180.441 24.352C179.785 24.688 179.033 24.856 178.185 24.856ZM168.729 17.2H171.825V34H169.257L159.993 22.624V34H156.897V17.2H159.465L168.729 28.576V17.2ZM178.185 18.712C177.481 18.712 176.913 18.92 176.481 19.336C176.065 19.736 175.857 20.272 175.857 20.944C175.857 21.6 176.073 22.136 176.505 22.552C176.937 22.952 177.497 23.152 178.185 23.152C178.873 23.152 179.433 22.952 179.865 22.552C180.297 22.136 180.513 21.6 180.513 20.944C180.513 20.272 180.297 19.736 179.865 19.336C179.449 18.92 178.889 18.712 178.185 18.712ZM174.273 26.608H182.121V28.528H174.273V26.608ZM191.153 17.2V34H188.033V19.816H184.481V17.2H191.153Z" fill="#1886B7"/>
</svg>
