<svg width="17" height="8" viewBox="0 0 17 8" fill="none" xmlns="http://www.w3.org/2000/svg">
<path fill-rule="evenodd" clip-rule="evenodd" d="M3 0C2.20435 0 1.44129 0.31607 0.87868 0.878679C0.316071 1.44129 0 2.20435 0 3V5C0 5.79565 0.316071 6.55871 0.87868 7.12132C1.44129 7.68393 2.20435 8 3 8C3.79565 8 4.55871 7.68393 5.12132 7.12132C5.68393 6.55871 6 5.79565 6 5H12V7H14V5H15V7H17V3H6C6 2.20435 5.68393 1.44129 5.12132 0.878679C4.55871 0.31607 3.79565 0 3 0ZM4 5V3C4 2.73478 3.89464 2.48043 3.70711 2.29289C3.51957 2.10536 3.26522 2 3 2C2.73478 2 2.48043 2.10536 2.29289 2.29289C2.10536 2.48043 2 2.73478 2 3V5C2 5.26522 2.10536 5.51957 2.29289 5.70711C2.48043 5.89464 2.73478 6 3 6C3.26522 6 3.51957 5.89464 3.70711 5.70711C3.89464 5.51957 4 5.26522 4 5Z" fill="#0F506E"/>
</svg>
