<svg width="40" height="40" viewBox="0 0 40 40" fill="none" xmlns="http://www.w3.org/2000/svg">
<path d="M9.375 6.25C9.72018 6.25 10 5.97018 10 5.625C10 5.27982 9.72018 5 9.375 5C9.02982 5 8.75 5.27982 8.75 5.625C8.75 5.97018 9.02982 6.25 9.375 6.25Z" fill="white"/>
<path d="M6.875 6.25C7.22018 6.25 7.5 5.97018 7.5 5.625C7.5 5.27982 7.22018 5 6.875 5C6.52982 5 6.25 5.27982 6.25 5.625C6.25 5.97018 6.52982 6.25 6.875 6.25Z" fill="white"/>
<path d="M4.375 6.25C4.72018 6.25 5 5.97018 5 5.625C5 5.27982 4.72018 5 4.375 5C4.02982 5 3.75 5.27982 3.75 5.625C3.75 5.97018 4.02982 6.25 4.375 6.25Z" fill="white"/>
<path d="M38.125 8.75H1.875C1.53 8.75 1.25 8.47 1.25 8.125C1.25 7.78 1.53 7.5 1.875 7.5H38.125C38.47 7.5 38.75 7.78 38.75 8.125C38.75 8.47 38.47 8.75 38.125 8.75Z" fill="white"/>
<path d="M1.875 27.5C1.53 27.5 1.25 27.22 1.25 26.875V4.375C1.25 3.34125 2.09125 2.5 3.125 2.5H36.875C37.9087 2.5 38.75 3.34125 38.75 4.375V15.625C38.75 15.97 38.47 16.25 38.125 16.25C37.78 16.25 37.5 15.97 37.5 15.625V4.375C37.5 4.03125 37.22 3.75 36.875 3.75H3.125C2.78 3.75 2.5 4.03125 2.5 4.375V26.875C2.5 27.22 2.22 27.5 1.875 27.5Z" fill="white"/>
<path d="M27.5 38.75H13.125C12.78 38.75 12.5 38.47 12.5 38.125C12.5 37.78 12.78 37.5 13.125 37.5H14.375C15.4088 37.5 16.25 36.6588 16.25 35.625V34.375C16.25 34.03 16.53 33.75 16.875 33.75C17.22 33.75 17.5 34.03 17.5 34.375V35.625C17.5 36.3288 17.2662 36.9775 16.8737 37.5H23.1262C22.7337 36.9775 22.5 36.3288 22.5 35.625V31.875C22.5 31.53 22.78 31.25 23.125 31.25C23.47 31.25 23.75 31.53 23.75 31.875V35.625C23.75 36.6588 24.5913 37.5 25.625 37.5H27.5C27.845 37.5 28.125 37.78 28.125 38.125C28.125 38.47 27.845 38.75 27.5 38.75Z" fill="white"/>
<path d="M23.125 32.5H3.125C2.09125 32.5 1.25 31.6588 1.25 30.625V26.875C1.25 26.53 1.53 26.25 1.875 26.25H19.375C19.72 26.25 20 26.53 20 26.875C20 27.22 19.72 27.5 19.375 27.5H2.5V30.625C2.5 30.9688 2.78 31.25 3.125 31.25H23.125C23.47 31.25 23.75 31.53 23.75 31.875C23.75 32.22 23.47 32.5 23.125 32.5Z" fill="white"/>
<path d="M23.125 17.5H21.875C21.53 17.5 21.25 17.22 21.25 16.875C21.25 16.53 21.53 16.25 21.875 16.25H23.125C23.47 16.25 23.75 16.53 23.75 16.875C23.75 17.22 23.47 17.5 23.125 17.5Z" fill="white"/>
<path d="M34.375 12.5H21.875C21.53 12.5 21.25 12.22 21.25 11.875C21.25 11.53 21.53 11.25 21.875 11.25H34.375C34.72 11.25 35 11.53 35 11.875C35 12.22 34.72 12.5 34.375 12.5Z" fill="white"/>
<path d="M34.375 15H21.875C21.53 15 21.25 14.72 21.25 14.375C21.25 14.03 21.53 13.75 21.875 13.75H34.375C34.72 13.75 35 14.03 35 14.375C35 14.72 34.72 15 34.375 15Z" fill="white"/>
<path d="M9.375 17.5H5.625C5.28 17.5 5 17.22 5 16.875C5 16.53 5.28 16.25 5.625 16.25H9.375C9.72 16.25 10 16.53 10 16.875C10 17.22 9.72 17.5 9.375 17.5Z" fill="white"/>
<path d="M18.125 12.5H5.625C5.28 12.5 5 12.22 5 11.875C5 11.53 5.28 11.25 5.625 11.25H18.125C18.47 11.25 18.75 11.53 18.75 11.875C18.75 12.22 18.47 12.5 18.125 12.5Z" fill="white"/>
<path d="M18.125 15H5.625C5.28 15 5 14.72 5 14.375C5 14.03 5.28 13.75 5.625 13.75H18.125C18.47 13.75 18.75 14.03 18.75 14.375C18.75 14.72 18.47 15 18.125 15Z" fill="white"/>
<path d="M30 33.75C25.175 33.75 21.25 29.8237 21.25 25C21.25 20.1762 25.175 16.25 30 16.25C31.69 16.25 33.3287 16.7325 34.74 17.6437C35.03 17.8312 35.1125 18.2175 34.925 18.5075C34.7375 18.795 34.3525 18.8825 34.0613 18.6925C32.8538 17.9125 31.4488 17.5 30 17.5C25.8637 17.5 22.5 20.8637 22.5 25C22.5 29.1362 25.8637 32.5 30 32.5C34.1362 32.5 37.5 29.1362 37.5 25C37.5 24.1975 37.3738 23.4087 37.1263 22.6537C37.0188 22.325 37.1975 21.9725 37.525 21.865C37.8525 21.755 38.2062 21.9362 38.3137 22.2625C38.6025 23.145 38.75 24.065 38.75 25C38.75 29.8237 34.825 33.75 30 33.75Z" fill="white"/>
<path d="M29.375 28.3737C29.37 28.3737 29.365 28.3737 29.36 28.3737C29.1788 28.3687 29.01 28.2874 28.8938 28.1487L25.7688 24.3987C25.5488 24.1324 25.585 23.7387 25.8488 23.5174C26.115 23.2974 26.5075 23.3337 26.73 23.5974L29.3963 26.7987L37.165 18.2174C37.4 17.9624 37.795 17.9474 38.0475 18.1787C38.3013 18.4124 38.3188 18.8074 38.085 19.0624L29.835 28.1712C29.7163 28.3012 29.5513 28.3737 29.375 28.3737Z" fill="white"/>
</svg>
