<svg width="40" height="40" viewBox="0 0 40 40" fill="none" xmlns="http://www.w3.org/2000/svg">
<path d="M38.7487 20C38.7487 14.8229 36.6497 10.1354 33.2577 6.74216C29.8644 3.35026 25.1769 1.25 19.9999 1.25C14.8228 1.25 10.134 3.35026 6.74203 6.74216C3.35013 10.1341 1.25 14.8229 1.25 20C1.25 25.1771 3.34895 29.8646 6.74092 33.2578C10.1328 36.6497 14.8216 38.7488 19.9987 38.7488C25.1758 38.7488 29.8633 36.6499 33.2565 33.2578C36.6497 29.8646 38.7487 25.1771 38.7487 20ZM34.1419 5.85804C37.7592 9.47654 40 14.4765 40 20C40 25.5235 37.7604 30.5235 34.1419 34.1419C30.5235 37.7604 25.5235 40 20 40C14.4765 40 9.4753 37.7604 5.85804 34.1419C2.2383 30.5221 0 25.5235 0 20C0 14.4765 2.23961 9.47654 5.85804 5.85804C9.47647 2.23954 14.4765 0 20 0C25.5209 0 30.5235 2.23961 34.1419 5.85804Z" fill="white"/>
<path d="M22.6341 17.366C22.8777 17.6094 22.8777 18.0066 22.6341 18.2501C22.3906 18.4936 21.9935 18.4936 21.7502 18.2501C21.5106 18.0105 21.2359 17.8295 20.9494 17.711C20.6499 17.5873 20.327 17.5248 20.0013 17.5248C19.3685 17.5248 18.7344 17.767 18.2515 18.2501C18.0119 18.4897 17.8309 18.7644 17.7124 19.0509C17.5887 19.3503 17.5262 19.6745 17.5262 20.0001C17.5262 20.6329 17.7684 21.267 18.2515 21.7501C18.4911 21.9896 18.7658 22.1707 19.051 22.2891H19.0536C19.353 22.4128 19.676 22.4753 20.0015 22.4753C20.6343 22.4753 21.2685 22.2332 21.7514 21.7501C21.995 21.5065 22.3921 21.5065 22.6355 21.7501C22.879 21.9936 22.879 22.3907 22.6355 22.6341C21.9089 23.3606 20.9545 23.7252 20.0013 23.7252C19.5195 23.7252 19.0327 23.6302 18.5743 23.4401V23.4387C18.1316 23.2551 17.7188 22.9855 17.3672 22.634C16.6407 21.9075 16.2761 20.953 16.2761 19.9999C16.2761 19.5181 16.3712 19.0311 16.5613 18.5728C16.7436 18.1328 17.0144 17.7186 17.3673 17.3658C18.0939 16.6392 19.0483 16.2747 20.0014 16.2747C20.4831 16.2747 20.9701 16.3698 21.4285 16.5598C21.8672 16.7422 22.2813 17.0131 22.6341 17.366Z" fill="white"/>
<path d="M25.586 13.5298C25.8296 13.2863 26.2267 13.2863 26.4701 13.5298C26.7136 13.7733 26.7136 14.1704 26.4701 14.4139L20.4427 20.4426C20.1991 20.6861 19.8021 20.6861 19.5586 20.4426C19.3151 20.199 19.3151 19.8019 19.5586 19.5584L25.586 13.5298Z" fill="white"/>
<path d="M13.8008 19.375C14.1459 19.375 14.4259 19.6549 14.4259 20C14.4259 20.3451 14.1459 20.6251 13.8008 20.6251H3.33731C2.99228 20.6251 2.71228 20.3451 2.71228 20C2.71228 19.6549 2.99221 19.375 3.33731 19.375H13.8008Z" fill="white"/>
<path d="M26.4726 20.625C26.1275 20.625 25.8475 20.3451 25.8475 20C25.8475 19.6549 26.1275 19.375 26.4726 19.375H36.6627C37.0077 19.375 37.2877 19.6549 37.2877 20C37.2877 20.3451 37.0077 20.625 36.6627 20.625H26.4726Z" fill="white"/>
<path d="M20.625 13.8007C20.625 14.1457 20.3451 14.4257 20 14.4257C19.6549 14.4257 19.375 14.1458 19.375 13.8007V3.33719C19.375 2.99216 19.6549 2.71216 20 2.71216C20.3451 2.71216 20.625 2.99209 20.625 3.33719V13.8007Z" fill="white"/>
<path d="M19.375 26.4727C19.375 26.1277 19.6549 25.8477 20 25.8477C20.3451 25.8477 20.6251 26.1276 20.6251 26.4727V36.6628C20.6251 37.0078 20.3451 37.2878 20 37.2878C19.6549 37.2878 19.375 37.0079 19.375 36.6628V26.4727Z" fill="white"/>
<path d="M28.5026 9.76293L27.806 10.4595L27.8047 10.4608L27.806 10.4622L27.612 10.6562L26.6524 11.6159V13.3476H28.3867L30.237 11.4987H29.1276C28.7826 11.4987 28.5026 11.2187 28.5026 10.8736V10.8554L28.5026 9.76293ZM26.9232 9.57934L28.655 7.84627C28.7696 7.71477 28.9389 7.63013 29.1276 7.63013C29.4726 7.63013 29.7526 7.91006 29.7526 8.25516V10.2473H31.7435V10.2499C31.9036 10.2499 32.0638 10.3111 32.1862 10.4335C32.4283 10.677 32.4271 11.0729 32.1836 11.315L29.1157 14.3814C29.0011 14.5129 28.8319 14.5976 28.6432 14.5976H26.0442H26.0286C25.6836 14.5976 25.4036 14.3176 25.4036 13.9726V11.3567C25.4036 11.1965 25.4649 11.0364 25.5872 10.914L26.7304 9.77077L26.9245 9.5781L26.9232 9.57934Z" fill="white"/>
<path d="M27.4987 9.71092C27.776 9.91275 27.8373 10.3021 27.6354 10.5794C27.4336 10.8567 27.0443 10.918 26.7669 10.7161C26.6042 10.5976 26.4219 10.4726 26.2227 10.345L26.181 10.3164C26.022 10.2148 25.8463 10.1094 25.6575 10.0026C25.4675 9.89451 25.2707 9.79033 25.0715 9.69137C24.8644 9.5885 24.6641 9.49608 24.4712 9.41536C24.1314 9.27085 23.7759 9.1419 23.4113 9.02863C23.0545 8.91798 22.6899 8.82294 22.3214 8.74869V8.75L22.3018 8.74608C21.9633 8.68222 21.742 8.35412 21.8071 8.01562C21.871 7.67706 22.1991 7.45576 22.5377 7.52085L22.5572 7.52477V7.52608H22.565C22.9777 7.61072 23.384 7.71491 23.7785 7.83726C24.1729 7.95961 24.5675 8.10419 24.9542 8.26824C25.1898 8.36719 25.4152 8.47007 25.6235 8.57425C25.8422 8.68229 26.0609 8.79824 26.2731 8.91928C26.4594 9.02477 26.6559 9.14327 26.8617 9.27602L26.8956 9.29556C27.0846 9.41667 27.2878 9.55601 27.4987 9.71092ZM20 7.26562C20.345 7.26562 20.625 7.54556 20.625 7.89066C20.625 8.23575 20.3451 8.51569 20 8.51569C19.5925 8.51569 19.2018 8.53523 18.8333 8.57164C18.4453 8.61072 18.0599 8.66928 17.6849 8.74615C17.3151 8.82164 16.9479 8.91667 16.5886 9.0287C16.224 9.14196 15.8685 9.27222 15.5287 9.41543C15.1901 9.55863 14.8555 9.72013 14.5313 9.89719L14.5287 9.89856L14.53 9.89987C14.2084 10.0731 13.8907 10.2671 13.5808 10.4767C13.2722 10.6837 12.9753 10.9051 12.6954 11.1369L12.6641 11.1603C12.405 11.3752 12.1407 11.6174 11.879 11.8804C11.6068 12.1525 11.3569 12.4273 11.1355 12.6942L11.1342 12.6955L11.1355 12.6968C10.905 12.9767 10.6824 13.2736 10.4753 13.5796C10.2656 13.8895 10.0716 14.2059 9.8985 14.5275L9.89719 14.5288L9.8985 14.5301C9.71491 14.8687 9.55347 15.202 9.41543 15.5288C9.27092 15.8687 9.14197 16.2241 9.0287 16.5887C8.91674 16.9481 8.82301 17.314 8.74746 17.6824H8.74876L8.74484 17.7006C8.67713 18.0392 8.34902 18.2592 8.01046 18.1916C7.6719 18.1238 7.45183 17.7957 7.51955 17.4572L7.52347 17.4389H7.52478L7.52608 17.435C7.61072 17.0223 7.71491 16.616 7.83726 16.2215C7.95968 15.827 8.10419 15.4325 8.26824 15.0457C8.43491 14.6512 8.61327 14.2788 8.80079 13.9351L8.8021 13.9364C9 13.5705 9.21484 13.2163 9.44144 12.8817C9.66928 12.5444 9.91536 12.2163 10.1758 11.9012H10.1745C10.4454 11.5718 10.7201 11.2697 10.9935 10.995C11.2605 10.728 11.5534 10.4611 11.8737 10.1968L11.8984 10.1746C12.2122 9.91425 12.5417 9.66811 12.8789 9.44157C13.2135 9.21503 13.569 9.0002 13.9361 8.80092L13.9375 8.80222C14.2929 8.60954 14.6641 8.42981 15.0443 8.26968C15.431 8.10562 15.8255 7.96105 16.2201 7.8387C16.6146 7.71628 17.0209 7.61085 17.4336 7.52752C17.8503 7.44288 18.2774 7.37647 18.7096 7.33353C19.1484 7.28778 19.5794 7.26562 20 7.26562ZM7.26562 20C7.26562 19.655 7.54556 19.375 7.89066 19.375C8.23576 19.375 8.51569 19.6549 8.51569 20C8.51569 20.4075 8.53523 20.7982 8.57164 21.1667C8.61072 21.5548 8.66928 21.9401 8.74615 22.3151C8.82164 22.6849 8.91667 23.0521 9.0287 23.4114C9.14197 23.776 9.27223 24.1315 9.41543 24.4714C9.55863 24.8099 9.72013 25.1432 9.89719 25.47C10.069 25.7865 10.2631 26.1055 10.4753 26.4205C10.6875 26.7355 10.9102 27.0324 11.1355 27.3059C11.3556 27.5729 11.6068 27.8463 11.879 28.1185L11.9115 28.1536C12.1641 28.4049 12.4258 28.6419 12.6915 28.8619L12.6928 28.8633L12.6941 28.8619C12.9741 29.0938 13.271 29.3152 13.5782 29.5222C13.8882 29.7319 14.2059 29.9259 14.5275 30.0989L14.56 30.1172C14.8751 30.2877 15.1993 30.4427 15.5275 30.582C15.8673 30.7265 16.2214 30.8555 16.5873 30.9687C16.948 31.0807 17.3139 31.1757 17.6837 31.2512C18.0599 31.3281 18.4441 31.3866 18.8321 31.4257C19.2006 31.4622 19.5912 31.4816 19.9988 31.4816C20.3439 31.4816 20.6238 31.7615 20.6238 32.1066C20.6238 32.4517 20.3439 32.7316 19.9988 32.7316C19.5782 32.7316 19.1472 32.7083 18.7097 32.6652C18.2774 32.6223 17.8516 32.5558 17.4337 32.4711C17.0209 32.3864 16.6146 32.2823 16.2201 32.1599C15.8256 32.0375 15.431 31.893 15.0443 31.7289C14.6732 31.5714 14.3099 31.3981 13.9623 31.2106L13.9363 31.1963C13.5691 30.997 13.2149 30.781 12.879 30.5556C12.5431 30.329 12.2137 30.0831 11.8986 29.8225L11.8999 29.8212C11.5952 29.5698 11.3048 29.3069 11.0314 29.0348L10.9962 29.0023C10.7227 28.7287 10.448 28.4266 10.1759 28.096C9.90896 27.7757 9.66157 27.4463 9.4402 27.1195C9.21752 26.79 9.00268 26.4346 8.80216 26.0648C8.60817 25.7066 8.42974 25.3356 8.2683 24.9541C8.10425 24.5674 7.95968 24.1729 7.83732 23.7784C7.71497 23.3839 7.60948 22.9776 7.52615 22.5649C7.44151 22.1482 7.3751 21.7212 7.33216 21.2889C7.28778 20.8516 7.26562 20.4206 7.26562 20ZM22.5429 32.4792C22.2043 32.5468 21.875 32.3268 21.8086 31.9883C21.7409 31.6497 21.9609 31.3203 22.2995 31.2539L22.3177 31.25L22.349 31.2448C22.7058 31.1706 23.0626 31.0781 23.4089 30.9713V30.9699C23.78 30.8553 24.1342 30.7251 24.47 30.5832C24.7955 30.4452 25.1303 30.2824 25.4687 30.1001L25.5052 30.0819C25.8139 29.914 26.1197 29.7264 26.4192 29.5233C26.7265 29.3163 27.0222 29.0949 27.3033 28.8631L27.3346 28.8383C27.5924 28.6235 27.8555 28.3825 28.1184 28.1195C28.392 27.8461 28.6431 27.5727 28.8633 27.3044C29.0884 27.031 29.3099 26.7341 29.5221 26.4203C29.7343 26.1053 29.9284 25.7875 30.1003 25.4738H30.0989C30.2786 25.1404 30.4414 24.8046 30.5821 24.4725C30.7266 24.1327 30.8556 23.7772 30.9688 23.4126C31.0808 23.0519 31.1758 22.6861 31.2512 22.3163C31.3282 21.94 31.3867 21.5559 31.4258 21.168C31.4623 20.7994 31.4817 20.4089 31.4817 20.0012C31.4817 19.6562 31.7616 19.3763 32.1067 19.3763C32.4518 19.3763 32.7317 19.6562 32.7317 20.0012C32.7317 20.4219 32.7084 20.8528 32.6653 21.2903C32.6224 21.7225 32.5559 22.1484 32.4712 22.5663C32.3865 22.979 32.2824 23.3853 32.16 23.7798C32.0376 24.1743 31.8931 24.5689 31.729 24.9555C31.5649 25.3436 31.3852 25.7146 31.1965 26.065H31.1951L31.1937 26.0676C30.9919 26.4387 30.7771 26.7915 30.5557 27.121C30.3343 27.4478 30.0883 27.7759 29.8239 28.0974C29.5518 28.4282 29.2758 28.7315 29.0024 29.005C28.738 29.2694 28.4464 29.5337 28.1299 29.7966L28.0975 29.8253C27.7809 30.087 27.4529 30.3318 27.1169 30.5596C26.7914 30.781 26.4477 30.9893 26.0909 31.1833L26.0636 31.1989C25.7197 31.3852 25.3475 31.5649 24.9529 31.7314C24.5622 31.8955 24.1677 32.0413 23.7797 32.1624H23.7771C23.397 32.2796 23.0063 32.3812 22.6105 32.4645L22.5609 32.4763L22.5429 32.4792ZM32.4792 17.4557C32.5469 17.7943 32.3269 18.1224 31.9883 18.1901C31.6497 18.2578 31.3216 18.0378 31.2539 17.6992L31.25 17.681L31.2448 17.6497C31.1706 17.2916 31.0781 16.9362 30.9701 16.5872C30.8569 16.2227 30.7265 15.8672 30.5833 15.5274C30.4505 15.211 30.599 14.8451 30.9154 14.7123C31.2318 14.5795 31.5977 14.7279 31.7305 15.0443C31.8946 15.431 32.0392 15.8256 32.1616 16.2201C32.28 16.599 32.3803 16.9909 32.4637 17.3881L32.4754 17.4363L32.4792 17.4557Z" fill="white"/>
</svg>
