<svg width="40" height="40" viewBox="0 0 40 40" fill="none" xmlns="http://www.w3.org/2000/svg">
<g clip-path="url(#clip0_419_491)">
<path d="M9.27758 38.5818H16.0582C16.3927 38.5818 16.6642 38.3102 16.6642 37.9757V35.2702H21.9164V37.9757C21.9164 38.3102 22.1879 38.5818 22.5224 38.5818H29.303C29.6376 38.5818 29.9091 38.3102 29.9091 37.9757V33.1515C35.0691 32.3612 39.6485 27.2496 39.8485 27.0242C39.9455 26.9139 40 26.7696 40 26.6218V20.4727C40 20.1381 39.7285 19.8666 39.3939 19.8666C36.7297 19.8666 34.2594 17.0363 33.417 15.9624C35.6812 13.5078 34.8194 9.73691 34.7794 9.57085C34.737 9.39388 34.6182 9.24479 34.4558 9.166C34.2921 9.08722 34.1018 9.086 33.9382 9.15994C33.9115 9.17207 31.2121 10.3927 27.9491 10.7115C19.8303 8.15388 12.4606 8.66782 7.71879 12.1333C4.67273 14.3599 2.99636 17.6569 2.99636 21.4181C2.99636 29.6254 7.5297 33.863 8.67273 34.7999V37.9745C8.67152 38.3102 8.94303 38.5818 9.27758 38.5818ZM15.4521 37.3696H9.88364V34.5066C9.88364 34.3127 9.79031 34.1296 9.63273 34.0169C9.5794 33.9769 4.20728 29.966 4.20728 21.4193C4.20728 18.0557 5.70788 15.1054 8.43273 13.1127C12.8812 9.86176 19.9042 9.42055 27.6982 11.9054C27.7758 11.9296 27.857 11.9345 27.937 11.9309C30.4533 11.703 32.6242 10.9806 33.7091 10.5636C33.8291 11.7248 33.8267 14.0327 32.2145 15.4436C31.983 15.646 31.9394 15.9902 32.1139 16.2436C32.2436 16.4315 35.1636 20.606 38.7879 21.0424V26.3854C37.9358 27.2896 33.6533 31.6096 29.2473 32.0109C28.9358 32.0387 28.6958 32.3006 28.6958 32.6145V37.3696H23.1273V34.6642C23.1273 34.3296 22.8558 34.0581 22.5212 34.0581H16.057C15.7224 34.0581 15.4509 34.3296 15.4509 34.6642V37.3696H15.4521Z" fill="white"/>
<path d="M25.4958 10.9043C25.7794 10.9043 26.034 10.7031 26.0897 10.4146C26.1831 9.93822 26.2291 9.44974 26.2291 8.96368C26.2291 4.80368 22.8449 1.41943 18.6849 1.41943C14.5249 1.41943 11.1406 4.80368 11.1406 8.96368C11.1406 9.4364 11.1843 9.90792 11.2703 10.3661C11.3309 10.6946 11.64 10.9128 11.9782 10.8485C12.3067 10.7867 12.5237 10.4691 12.4606 10.1406C12.3879 9.75762 12.3516 9.36004 12.3516 8.96246C12.3516 5.47156 15.1915 2.63034 18.6837 2.63034C22.1758 2.63034 25.0182 5.47156 25.0182 8.96246C25.0182 9.37216 24.9782 9.78186 24.9006 10.1819C24.8364 10.5103 25.0509 10.8291 25.3794 10.8934C25.4182 10.9006 25.457 10.9043 25.4958 10.9043Z" fill="white"/>
<path d="M27.8024 21.0776C27.96 21.0776 28.1175 21.017 28.2266 20.9079C28.3478 20.7867 28.4084 20.6291 28.4084 20.4716C28.4084 20.314 28.3478 20.1564 28.2387 20.0473C27.9963 19.817 27.6084 19.817 27.3781 20.0352C27.2691 20.1564 27.1963 20.3128 27.1963 20.4704C27.1963 20.6279 27.2691 20.7867 27.3781 20.8958C27.4994 21.017 27.6448 21.0776 27.8024 21.0776Z" fill="white"/>
<path d="M34.7855 31.114C35.0728 31.114 35.3273 30.9092 35.3806 30.6171C35.4412 30.2886 35.2231 29.9722 34.8934 29.9116C34.8655 29.9068 32.034 29.3613 31.2946 27.2122C31.1855 26.8958 30.8425 26.7286 30.5249 26.8365C30.2085 26.9455 30.04 27.2898 30.1491 27.6074C31.1212 30.4328 34.5334 31.0777 34.6776 31.1043C34.714 31.1116 34.7491 31.114 34.7855 31.114Z" fill="white"/>
<path d="M2.08724 20.5696C3.05209 20.5696 3.95754 20.0448 4.08481 19.9696C4.37087 19.7963 4.463 19.4266 4.29087 19.1381C4.11875 18.8521 3.74542 18.7587 3.46057 18.9296C3.17936 19.0969 2.24966 19.5212 1.70421 19.2884C1.6133 19.2509 1.33815 19.1333 1.19512 18.5212C1.11875 18.1927 0.79754 17.9902 0.466631 18.0678C0.140571 18.1442 -0.0618505 18.4702 0.014513 18.7963C0.248453 19.7999 0.806027 20.2266 1.23269 20.406C1.51148 20.5236 1.80239 20.5696 2.08724 20.5696Z" fill="white"/>
</g>
<defs>
<clipPath id="clip0_419_491">
<rect width="40" height="40" fill="white" transform="matrix(-1 0 0 1 40 0)"/>
</clipPath>
</defs>
</svg>
