<svg width="40" height="40" viewBox="0 0 40 40" fill="none" xmlns="http://www.w3.org/2000/svg">
<path d="M22.4996 29.0625C14.7455 29.0625 8.43713 22.7541 8.43713 15C8.43713 7.24591 14.7455 0.9375 22.4996 0.9375C30.2537 0.9375 36.5621 7.24591 36.5621 15C36.5738 18.0858 35.5588 21.0879 33.677 23.5336C34.1099 24.0024 34.6087 24.4056 35.1579 24.7305C36.2536 25.3739 37.3056 25.5443 38.0017 25.657C38.5989 25.7537 39.0304 25.8236 39.0612 26.2261C39.0646 26.3021 39.0515 26.3779 39.0228 26.4484C38.9942 26.5188 38.9506 26.5822 38.8952 26.6343C38.3317 27.2299 36.0091 27.8609 33.743 27.8124C32.3863 27.7804 31.0449 27.5173 29.7765 27.0346C27.5819 28.3632 25.065 29.0646 22.4996 29.0625ZM22.4996 1.5625C15.0902 1.5625 9.06213 7.59052 9.06213 15C9.06213 22.4095 15.0902 28.4375 22.4996 28.4375C25.0014 28.4396 27.4539 27.7415 29.5796 26.4222C29.6208 26.3965 29.6675 26.3809 29.7158 26.3764C29.7642 26.372 29.8129 26.3789 29.8581 26.3965C31.1008 26.8876 32.4204 27.1554 33.7563 27.1876C35.8326 27.2311 37.6775 26.6874 38.2705 26.3378C38.1574 26.3154 38.0222 26.2935 37.9018 26.274C37.1597 26.1538 36.0381 25.9721 34.8414 25.2695C34.1601 24.8657 33.5494 24.3532 33.0336 23.7523C32.9859 23.6972 32.9589 23.6272 32.9574 23.5543C32.9558 23.4814 32.9798 23.4103 33.0252 23.3533C34.9209 20.9829 35.9484 18.0352 35.9371 15C35.9371 7.59052 29.9091 1.5625 22.4996 1.5625Z" fill="white"/>
<path d="M17.5 11.25C14.9145 11.25 12.3814 11.9789 10.1914 13.3532C8.00135 14.7275 6.24318 16.6914 5.11865 19.0195C3.99412 21.3476 3.5488 23.9457 3.83379 26.5154C4.11878 29.0852 5.12254 31.5225 6.72987 33.5477C6.23652 34.1231 5.65215 34.6137 5 35C3.0709 36.1327 1.27964 35.8626 1.25 36.25C1.21516 36.7055 3.65391 37.5547 6.25 37.5C7.62244 37.4668 8.97827 37.1918 10.2552 36.6876C12.0633 37.8084 14.1068 38.4943 16.2249 38.6916C18.343 38.8888 20.478 38.5918 22.462 37.8241C24.4459 37.0564 26.2246 35.8388 27.6583 34.2672C29.092 32.6956 30.1414 30.8128 30.7241 28.7668C31.3068 26.7209 31.4069 24.5677 31.0164 22.4765C30.6259 20.3854 29.7556 18.4133 28.4739 16.7155C27.1921 15.0177 25.534 13.6405 23.6298 12.6921C21.7256 11.7437 19.6273 11.2501 17.5 11.25Z" fill="white"/>
<path d="M17.5 39.0625C14.9346 39.0645 12.4177 38.3632 10.2231 37.0346C8.95471 37.5173 7.61333 37.7803 6.25657 37.8124C3.99147 37.8601 1.66783 37.2299 1.1044 36.6343C1.04896 36.5822 1.00543 36.5188 0.976777 36.4484C0.948124 36.3779 0.935026 36.3021 0.93838 36.2261C0.969169 35.8236 1.40068 35.7537 1.99791 35.657C2.694 35.5443 3.74596 35.3739 4.84173 34.7305C5.39084 34.4056 5.88969 34.0024 6.32256 33.5336C4.44076 31.0879 3.42579 28.0858 3.43747 25C3.43747 17.2459 9.74587 10.9375 17.5 10.9375C25.2541 10.9375 31.5625 17.2459 31.5625 25C31.5625 32.7541 25.2541 39.0625 17.5 39.0625ZM10.2551 36.3751C10.3134 36.3751 10.3705 36.3914 10.42 36.4222C12.5457 37.7415 14.9982 38.4396 17.5 38.4375C24.9094 38.4375 30.9375 32.4095 30.9375 25C30.9375 17.5905 24.9094 11.5625 17.5 11.5625C10.0905 11.5625 4.06247 17.5905 4.06247 25C4.05119 28.0352 5.07876 30.9828 6.97445 33.3532C7.01981 33.4103 7.04379 33.4814 7.04225 33.5543C7.04071 33.6271 7.01375 33.6972 6.96602 33.7523C6.45023 34.3532 5.83956 34.8657 5.15821 35.2694C3.9615 35.9721 2.83998 36.1538 2.09783 36.274C1.97751 36.2935 1.84221 36.3154 1.72908 36.3377C2.32204 36.6874 4.16774 37.2315 6.24335 37.1875C7.57914 37.1553 8.89876 36.8875 10.1414 36.3965C10.1777 36.3824 10.2162 36.3751 10.2551 36.3751Z" fill="white"/>
<path d="M25.625 27.1875C25.1924 27.1875 24.7694 27.0592 24.4097 26.8188C24.05 26.5785 23.7696 26.2368 23.604 25.8371C23.4384 25.4374 23.3951 24.9976 23.4795 24.5732C23.5639 24.1489 23.7723 23.7591 24.0782 23.4532C24.3841 23.1473 24.7739 22.9389 25.1982 22.8545C25.6226 22.7701 26.0624 22.8134 26.4621 22.979C26.8618 23.1446 27.2035 23.425 27.4438 23.7847C27.6842 24.1444 27.8125 24.5674 27.8125 25C27.8119 25.58 27.5812 26.136 27.1711 26.5461C26.761 26.9562 26.205 27.1869 25.625 27.1875ZM25.625 23.4375C25.316 23.4375 25.0139 23.5291 24.7569 23.7008C24.5 23.8725 24.2997 24.1165 24.1814 24.4021C24.0632 24.6876 24.0322 25.0017 24.0925 25.3048C24.1528 25.6079 24.3016 25.8863 24.5201 26.1049C24.7387 26.3234 25.0171 26.4722 25.3202 26.5325C25.6233 26.5928 25.9374 26.5618 26.2229 26.4436C26.5085 26.3253 26.7525 26.125 26.9242 25.8681C27.0959 25.6111 27.1875 25.309 27.1875 25C27.187 24.5857 27.0223 24.1886 26.7293 23.8957C26.4364 23.6027 26.0393 23.438 25.625 23.4375Z" fill="white"/>
<path d="M18.125 27.1875C17.6924 27.1875 17.2694 27.0592 16.9097 26.8188C16.55 26.5785 16.2696 26.2368 16.104 25.8371C15.9384 25.4374 15.8951 24.9976 15.9795 24.5732C16.0639 24.1489 16.2723 23.7591 16.5782 23.4532C16.8841 23.1473 17.2739 22.9389 17.6982 22.8545C18.1226 22.7701 18.5624 22.8134 18.9621 22.979C19.3618 23.1446 19.7035 23.425 19.9438 23.7847C20.1842 24.1444 20.3125 24.5674 20.3125 25C20.3118 25.58 20.0812 26.136 19.6711 26.5461C19.261 26.9562 18.705 27.1869 18.125 27.1875ZM18.125 23.4375C17.816 23.4375 17.5139 23.5291 17.2569 23.7008C17 23.8725 16.7997 24.1165 16.6814 24.4021C16.5632 24.6876 16.5322 25.0017 16.5925 25.3048C16.6528 25.6079 16.8016 25.8863 17.0201 26.1049C17.2387 26.3234 17.5171 26.4722 17.8202 26.5325C18.1233 26.5928 18.4374 26.5618 18.7229 26.4436C19.0085 26.3253 19.2525 26.125 19.4242 25.8681C19.5959 25.6111 19.6875 25.309 19.6875 25C19.687 24.5857 19.5222 24.1886 19.2293 23.8957C18.9364 23.6027 18.5393 23.438 18.125 23.4375Z" fill="white"/>
<path d="M10.625 27.1875C10.1924 27.1875 9.76942 27.0592 9.40969 26.8188C9.04996 26.5785 8.76958 26.2368 8.60401 25.8371C8.43845 25.4374 8.39513 24.9976 8.47953 24.5732C8.56394 24.1489 8.77228 23.7591 9.07821 23.4532C9.38413 23.1473 9.77391 22.9389 10.1982 22.8545C10.6226 22.7701 11.0624 22.8134 11.4621 22.979C11.8618 23.1446 12.2035 23.425 12.4438 23.7847C12.6842 24.1444 12.8125 24.5674 12.8125 25C12.8119 25.58 12.5812 26.136 12.1711 26.5461C11.761 26.9562 11.205 27.1869 10.625 27.1875ZM10.625 23.4375C10.316 23.4375 10.0139 23.5291 9.75692 23.7008C9.49997 23.8725 9.2997 24.1165 9.18144 24.4021C9.06318 24.6876 9.03223 25.0017 9.09252 25.3048C9.15281 25.6079 9.30163 25.8863 9.52015 26.1049C9.73867 26.3234 10.0171 26.4722 10.3202 26.5325C10.6233 26.5928 10.9374 26.5618 11.2229 26.4436C11.5085 26.3253 11.7525 26.125 11.9242 25.8681C12.0959 25.6111 12.1875 25.309 12.1875 25C12.187 24.5857 12.0223 24.1886 11.7293 23.8957C11.4364 23.6027 11.0393 23.438 10.625 23.4375Z" fill="white"/>
<path d="M25.0004 15.3124C24.9346 15.3125 24.8705 15.2916 24.8174 15.2528C24.426 14.9587 24.0173 14.6883 23.5936 14.4429C23.5579 14.4224 23.5266 14.3951 23.5015 14.3625C23.4764 14.3299 23.458 14.2927 23.4474 14.253C23.4367 14.2133 23.434 14.1719 23.4393 14.1311C23.4447 14.0903 23.4581 14.051 23.4786 14.0154C23.4992 13.9798 23.5267 13.9486 23.5593 13.9236C23.592 13.8987 23.6293 13.8804 23.669 13.8698C23.7088 13.8593 23.7502 13.8567 23.791 13.8622C23.8317 13.8677 23.871 13.8812 23.9065 13.9019C24.3501 14.1586 24.7779 14.4416 25.1877 14.7493C25.2403 14.7887 25.2791 14.8436 25.2987 14.9062C25.3183 14.9689 25.3178 15.0361 25.297 15.0984C25.2763 15.1607 25.2365 15.2149 25.1832 15.2533C25.13 15.2917 25.066 15.3124 25.0004 15.3124Z" fill="white"/>
<path d="M21.2501 13.3848C21.2183 13.3848 21.1867 13.3799 21.1563 13.3704C19.973 12.9995 18.7401 12.8113 17.5 12.8125C17.4171 12.8125 17.3376 12.7796 17.279 12.721C17.2204 12.6624 17.1875 12.5829 17.1875 12.5C17.1875 12.4171 17.2204 12.3376 17.279 12.279C17.3376 12.2204 17.4171 12.1875 17.5 12.1875C18.8036 12.1864 20.0997 12.3842 21.3437 12.7741C21.4149 12.7965 21.4758 12.8436 21.5152 12.907C21.5547 12.9704 21.5702 13.0458 21.5589 13.1196C21.5476 13.1934 21.5102 13.2607 21.4536 13.3094C21.3969 13.358 21.3248 13.3848 21.2501 13.3848Z" fill="white"/>
<path d="M31.4268 6.56286C31.3852 6.56292 31.344 6.55465 31.3057 6.53855C31.2674 6.52245 31.2326 6.49884 31.2036 6.46911C30.7711 6.02812 30.306 5.62036 29.8123 5.24929C29.7463 5.19941 29.7028 5.1254 29.6913 5.0435C29.6798 4.96159 29.7012 4.87846 29.7509 4.81232C29.8005 4.74619 29.8744 4.70244 29.9563 4.69068C30.0382 4.67891 30.1214 4.70009 30.1876 4.74956C30.7066 5.13956 31.1954 5.56813 31.6499 6.03161C31.693 6.07556 31.7221 6.13124 31.7337 6.19169C31.7452 6.25213 31.7387 6.31463 31.7148 6.37137C31.691 6.42811 31.651 6.47654 31.5997 6.51061C31.5485 6.54467 31.4883 6.56285 31.4268 6.56286Z" fill="white"/>
<path d="M27.4998 3.85272C27.4568 3.8527 27.4143 3.84378 27.3748 3.82651C25.8377 3.15427 24.1777 2.80896 22.5 2.81253C22.4171 2.81253 22.3376 2.7796 22.279 2.721C22.2204 2.66239 22.1875 2.58291 22.1875 2.50003C22.1875 2.41715 22.2204 2.33766 22.279 2.27906C22.3376 2.22045 22.4171 2.18753 22.5 2.18753C24.2638 2.18386 26.0091 2.54695 27.6251 3.25377C27.6909 3.28253 27.7448 3.33306 27.7777 3.39687C27.8106 3.46068 27.8206 3.53388 27.8059 3.60415C27.7912 3.67443 27.7527 3.7375 27.697 3.78277C27.6413 3.82804 27.5716 3.85274 27.4998 3.85272Z" fill="white"/>
</svg>
