<svg width="40" height="40" viewBox="0 0 40 40" fill="none" xmlns="http://www.w3.org/2000/svg">
<path d="M19.375 28.75H20.625V30H19.375V28.75Z" fill="white"/>
<path d="M21.875 28.75H23.125V30H21.875V28.75Z" fill="white"/>
<path d="M16.875 28.75H18.125V30H16.875V28.75Z" fill="white"/>
<path d="M35 2.5H36.25V3.75H35V2.5Z" fill="white"/>
<path d="M32.5 2.5H33.75V3.75H32.5V2.5Z" fill="white"/>
<path d="M30 2.5H31.25V3.75H30V2.5Z" fill="white"/>
<path d="M33.125 20H28.125C27.78 20 27.5 20.28 27.5 20.625C27.5 20.97 27.78 21.25 28.125 21.25H30C31.0338 21.25 31.875 22.0913 31.875 23.125C31.875 24.1588 31.0338 25 30 25H20.625C20.4587 25 20.2994 24.9338 20.1819 24.8156C20.0212 24.6544 16.25 20.8263 16.25 17.5C16.25 14.3687 17.8856 12.5 20.625 12.5C23.3644 12.5 25 14.3687 25 17.5C25 19.8062 23.1888 22.3506 22.0238 23.75H30C30.345 23.75 30.625 23.47 30.625 23.125C30.625 22.78 30.345 22.5 30 22.5H28.125C27.0913 22.5 26.25 21.6587 26.25 20.625C26.25 19.5913 27.0913 18.75 28.125 18.75H31.7263C30.5613 17.3506 28.75 14.8063 28.75 12.5C28.75 9.36875 30.3856 7.5 33.125 7.5C35.8644 7.5 37.5 9.36875 37.5 12.5C37.5 15.8263 33.7287 19.6544 33.5681 19.8156C33.4506 19.9338 33.2913 20 33.125 20ZM20.625 13.75C18.6094 13.75 17.5 15.0819 17.5 17.5C17.5 19.7019 19.6694 22.3819 20.625 23.4556C21.5806 22.3812 23.75 19.7019 23.75 17.5C23.75 15.0819 22.6406 13.75 20.625 13.75ZM33.125 8.75C31.1094 8.75 30 10.0819 30 12.5C30 14.7019 32.1694 17.3819 33.125 18.4556C34.0806 17.3819 36.25 14.7019 36.25 12.5C36.25 10.0819 35.1406 8.75 33.125 8.75Z" fill="white"/>
<path d="M31.25 11.875C31.25 10.8412 32.0912 10 33.125 10C34.1588 10 35 10.8412 35 11.875C35 12.9088 34.1588 13.75 33.125 13.75C32.0912 13.75 31.25 12.9088 31.25 11.875ZM33.75 11.875C33.75 11.53 33.47 11.25 33.125 11.25C32.78 11.25 32.5 11.53 32.5 11.875C32.5 12.22 32.78 12.5 33.125 12.5C33.47 12.5 33.75 12.22 33.75 11.875Z" fill="white"/>
<path d="M18.75 16.875C18.75 15.8412 19.5912 15 20.625 15C21.6588 15 22.5 15.8412 22.5 16.875C22.5 17.9088 21.6588 18.75 20.625 18.75C19.5912 18.75 18.75 17.9088 18.75 16.875ZM21.25 16.875C21.25 16.53 20.97 16.25 20.625 16.25C20.28 16.25 20 16.53 20 16.875C20 17.22 20.28 17.5 20.625 17.5C20.97 17.5 21.25 17.22 21.25 16.875Z" fill="white"/>
<path d="M3.125 0H36.875C38.5981 0 40 1.48 40 3.20312V29.375C40 31.0981 38.5981 32.5 36.875 32.5H25.9019L27.3081 36.25H31.25C31.5956 36.25 31.875 36.5294 31.875 36.875C31.875 38.5981 30.4731 40 28.75 40H11.25C9.52687 40 8.125 38.5981 8.125 36.875C8.125 36.5294 8.40438 36.25 8.75 36.25H12.6919L14.0981 32.5H3.125C1.40187 32.5 0 31.0981 0 29.375V3.20312C0 1.48 1.40187 0 3.125 0ZM36.875 1.25H3.125C2.09125 1.25 1.25 2.16937 1.25 3.20312V5H37.5V6.25H1.25V26.25H38.75V3.20312C38.75 2.16937 37.9088 1.25 36.875 1.25ZM11.25 38.75H28.75C29.565 38.75 30.26 38.2275 30.5181 37.5H26.875H13.125H9.48188C9.74 38.2275 10.435 38.75 11.25 38.75ZM14.0269 36.25H25.9731L24.5669 32.5H15.4338L14.0269 36.25ZM3.125 31.25H15H25H36.875C37.9088 31.25 38.75 30.4088 38.75 29.375V27.5H1.25V29.375C1.25 30.4088 2.09125 31.25 3.125 31.25Z" fill="white"/>
<path d="M14.375 15H10C9.65438 15 9.375 14.7206 9.375 14.375V11.875C9.375 11.5294 9.65438 11.25 10 11.25H14.375C14.7206 11.25 15 11.5294 15 11.875V14.375C15 14.7206 14.7206 15 14.375 15ZM13.75 12.5H10.625V13.75H13.75V12.5Z" fill="white"/>
<path d="M7.5 15H3.125C2.77938 15 2.5 14.7206 2.5 14.375V11.875C2.5 11.5294 2.77938 11.25 3.125 11.25H7.5C7.84562 11.25 8.125 11.5294 8.125 11.875V14.375C8.125 14.7206 7.84562 15 7.5 15ZM6.875 12.5H3.75V13.75H6.875V12.5Z" fill="white"/>
<path d="M2.5 16.25H15V17.5H2.5V16.25Z" fill="white"/>
<path d="M2.5 18.75H15V20H2.5V18.75Z" fill="white"/>
<path d="M2.5 21.25H15V22.5H2.5V21.25Z" fill="white"/>
<path d="M13.125 8.125H15V9.375H13.125V8.125Z" fill="white"/>
<path d="M9.375 8.125H11.875V9.375H9.375V8.125Z" fill="white"/>
<path d="M2.5 8.125H8.125V9.375H2.5V8.125Z" fill="white"/>
</svg>
