<svg width="50" height="50" viewBox="0 0 50 50" fill="none" xmlns="http://www.w3.org/2000/svg">
<path d="M36.8531 20.3125L32.8125 16.2719V9.375H35.9375V14.9781L39.0625 18.1031L36.8531 20.3125Z" fill="#0F506E"/>
<path d="M34.375 28.125C31.9027 28.125 29.486 27.3919 27.4304 26.0184C25.3748 24.6449 23.7726 22.6926 22.8265 20.4085C21.8804 18.1245 21.6329 15.6111 22.1152 13.1864C22.5975 10.7616 23.788 8.53433 25.5362 6.78617C27.2843 5.03801 29.5116 3.8475 31.9364 3.36519C34.3611 2.88287 36.8745 3.13042 39.1586 4.07651C41.4426 5.02261 43.3949 6.62476 44.7684 8.68038C46.1419 10.736 46.875 13.1527 46.875 15.625C46.8709 18.9389 45.5526 22.116 43.2093 24.4593C40.866 26.8026 37.6889 28.1209 34.375 28.125ZM34.375 6.25001C32.5208 6.25001 30.7082 6.79984 29.1665 7.82998C27.6248 8.86012 26.4232 10.3243 25.7136 12.0373C25.0041 13.7504 24.8184 15.6354 25.1801 17.454C25.5419 19.2725 26.4348 20.943 27.7459 22.2541C29.057 23.5652 30.7275 24.4581 32.546 24.8199C34.3646 25.1816 36.2496 24.9959 37.9627 24.2864C39.6757 23.5768 41.1399 22.3752 42.17 20.8335C43.2002 19.2918 43.75 17.4792 43.75 15.625C43.7471 13.1395 42.7585 10.7566 41.0009 8.99908C39.2434 7.24155 36.8605 6.2529 34.375 6.25001Z" fill="#0F506E"/>
<path d="M13.4844 28.125L24.4219 37.5H46.875V34.375H25.5781L14.6406 25H6.25V3.125H3.125V43.75C3.12583 44.5785 3.45533 45.3729 4.0412 45.9588C4.62708 46.5447 5.42145 46.8742 6.25 46.875H46.875V43.75H6.25V28.125H13.4844Z" fill="#0F506E"/>
</svg>
