<svg width="64" height="65" viewBox="0 0 64 65" fill="none" xmlns="http://www.w3.org/2000/svg">
<g filter="url(#filter0_d_418_148)">
<path d="M32 35C29.0333 35 26.1332 34.1203 23.6665 32.4721C21.1997 30.8238 19.2771 28.4812 18.1418 25.7403C17.0065 22.9994 16.7094 19.9834 17.2882 17.0737C17.867 14.1639 19.2956 11.4912 21.3934 9.39341C23.4912 7.29562 26.1639 5.86701 29.0737 5.28823C31.9834 4.70945 34.9994 5.0065 37.7403 6.14181C40.4811 7.27713 42.8238 9.19972 44.4721 11.6665C46.1203 14.1332 47 17.0333 47 20C47 21.9698 46.612 23.9204 45.8582 25.7403C45.1044 27.5601 43.9995 29.2137 42.6066 30.6066C41.2137 31.9995 39.5601 33.1044 37.7403 33.8582C35.9204 34.612 33.9698 35 32 35ZM32 7.00001C29.4288 7.00001 26.9154 7.76244 24.7776 9.1909C22.6398 10.6194 20.9735 12.6497 19.9896 15.0251C19.0056 17.4006 18.7482 20.0144 19.2498 22.5362C19.7514 25.0579 20.9895 27.3743 22.8076 29.1924C24.6257 31.0105 26.9421 32.2486 29.4638 32.7502C31.9856 33.2518 34.5995 32.9944 36.9749 32.0104C39.3503 31.0265 41.3807 29.3603 42.8091 27.2224C44.2376 25.0846 45 22.5712 45 20C44.9947 16.5538 43.6234 13.2503 41.1866 10.8135C38.7497 8.37663 35.4462 7.0053 32 7.00001Z" fill="#0F506E"/>
<path d="M52 57H12C11.7348 57 11.4805 56.8946 11.2929 56.7071C11.1054 56.5196 11 56.2652 11 56V44C10.9904 43.9069 10.9904 43.8131 11 43.72C11.96 40.4 15 38.1 17.8 36.08C18.46 35.58 19.08 35.12 19.66 34.64C19.8591 34.4859 20.1081 34.4109 20.3592 34.4293C20.6103 34.4478 20.8456 34.5584 21.02 34.74C22.4443 36.1869 24.1597 37.3149 26.0525 38.0492C27.9454 38.7836 29.9726 39.1077 32 39C34.0151 39.1039 36.0292 38.7778 37.9086 38.0433C39.7879 37.3088 41.4894 36.1828 42.9 34.74C43.0744 34.5584 43.3098 34.4478 43.5609 34.4293C43.8119 34.4109 44.061 34.4859 44.26 34.64C44.84 35.12 45.46 35.58 46.12 36.06C48.86 38.06 51.96 40.4 52.92 43.72C52.9297 43.8131 52.9297 43.9069 52.92 44V56C52.9208 56.2519 52.8265 56.4949 52.656 56.6803C52.4854 56.8657 52.2511 56.9799 52 57ZM13 55H51V44.14C50.18 41.54 47.42 39.48 45 37.68L43.78 36.76C40.564 39.6679 36.3316 41.1913 32 41C27.6701 41.1805 23.4417 39.6585 20.22 36.76L18.98 37.68C16.54 39.48 13.78 41.54 12.98 44.14L13 55Z" fill="#0F506E"/>
</g>
<defs>
<filter id="filter0_d_418_148" x="-4" y="0" width="72" height="72" filterUnits="userSpaceOnUse" color-interpolation-filters="sRGB">
<feFlood flood-opacity="0" result="BackgroundImageFix"/>
<feColorMatrix in="SourceAlpha" type="matrix" values="0 0 0 0 0 0 0 0 0 0 0 0 0 0 0 0 0 0 127 0" result="hardAlpha"/>
<feOffset dy="4"/>
<feGaussianBlur stdDeviation="2"/>
<feComposite in2="hardAlpha" operator="out"/>
<feColorMatrix type="matrix" values="0 0 0 0 0 0 0 0 0 0 0 0 0 0 0 0 0 0 0.25 0"/>
<feBlend mode="normal" in2="BackgroundImageFix" result="effect1_dropShadow_418_148"/>
<feBlend mode="normal" in="SourceGraphic" in2="effect1_dropShadow_418_148" result="shape"/>
</filter>
</defs>
</svg>
