<svg width="64" height="64" viewBox="0 0 64 64" fill="none" xmlns="http://www.w3.org/2000/svg">
<path d="M61.9444 27.2687L55.7962 15.4946C55.4295 14.8 54.8061 14.276 54.0588 14.0341C53.3115 13.7923 52.4993 13.8518 51.7952 14.1998L45.7639 17.2153H41.216L32.77 13.3938C32.1176 13.0991 31.3813 13.047 30.6939 13.247L18.1494 16.9041L12.2049 13.9319C11.5007 13.5839 10.6886 13.5245 9.94132 13.7663C9.19405 14.0081 8.57067 14.5321 8.20388 15.2266L2.05569 27.0009C1.87132 27.354 1.75914 27.7404 1.72569 28.1373C1.69223 28.5343 1.73817 28.934 1.86082 29.313C1.98348 29.692 2.18039 30.0428 2.44007 30.345C2.69975 30.6471 3.017 30.8945 3.37331 31.0726L9.46327 34.1176L23.0493 44.7412C23.38 45.0007 23.7618 45.1872 24.1697 45.2886L38.6589 48.9109C38.8947 48.9697 39.1367 48.9993 39.3797 48.9993C40.1771 48.9996 40.9423 48.6841 41.5078 48.1218L50.707 38.9225C50.7256 38.9041 50.7432 38.8849 50.7603 38.8651L54.6287 34.3396L60.6267 31.3406C60.983 31.1624 61.3003 30.915 61.56 30.6129C61.8197 30.3108 62.0166 29.9599 62.1392 29.5809C62.2619 29.2019 62.3078 28.8022 62.2744 28.4052C62.2409 28.0082 62.1287 27.6219 61.9444 27.2687L61.9444 27.2687ZM49.8406 36.8629L39.5882 29.4066C39.4152 29.2809 39.2065 29.2139 38.9926 29.2154C38.7788 29.217 38.5711 29.287 38.3999 29.4153L35.2 31.8153C33.986 32.7186 32.5132 33.2064 31 33.2064C29.4869 33.2064 28.0141 32.7186 26.8001 31.8153L25.4449 30.799C25.3303 30.713 25.2355 30.6034 25.1669 30.4777C25.0983 30.3519 25.0576 30.2128 25.0474 30.0699C25.0372 29.9271 25.0579 29.7836 25.108 29.6494C25.1581 29.5152 25.2364 29.3933 25.3377 29.292L35.1214 19.5083C35.3093 19.3214 35.5634 19.2162 35.8284 19.2154H40.9972L40.9995 19.2156L41.003 19.2154H45.3941L52.8008 33.3998L49.8406 36.8629ZM3.76369 28.6973C3.72237 28.571 3.70682 28.4377 3.71798 28.3053C3.72913 28.1729 3.76676 28.0441 3.82863 27.9265L9.97683 16.1522C10.0623 15.9902 10.1904 15.8546 10.3473 15.7601C10.5042 15.6657 10.684 15.6159 10.8672 15.6162C11.021 15.6161 11.1728 15.6519 11.3103 15.7207L16.6426 18.3868L9.56838 31.9341L4.26784 29.2838C4.14882 29.2248 4.04287 29.1425 3.95627 29.0417C3.86967 28.9409 3.80418 28.8238 3.76369 28.6973ZM40.0938 46.7075C39.9714 46.8294 39.8197 46.9176 39.6533 46.9636C39.4869 47.0097 39.3114 47.012 39.1438 46.9705L24.6546 43.3482C24.5187 43.3144 24.3915 43.2522 24.2813 43.1658L11.2718 32.993L18.6634 18.8375L31.2534 15.1671C31.4826 15.1003 31.7281 15.1176 31.9456 15.216L36.3642 17.2154H35.8284C35.4343 17.2143 35.0439 17.2914 34.6798 17.4422C34.3157 17.593 33.9852 17.8146 33.7073 18.094L23.9236 27.8777C23.6196 28.1816 23.3845 28.5473 23.2342 28.9499C23.0839 29.3526 23.0218 29.7829 23.0523 30.2117C23.0827 30.6404 23.2049 31.0576 23.4106 31.435C23.6164 31.8124 23.9008 32.1412 24.2447 32.3991L25.5999 33.4154C27.1608 34.5767 29.0545 35.2038 31 35.2038C32.9455 35.2038 34.8392 34.5767 36.4002 33.4154L39.0091 31.4585L48.4655 38.3358L40.0938 46.7075ZM60.2364 28.9652C60.1959 29.0918 60.1304 29.2089 60.0438 29.3096C59.9572 29.4104 59.8512 29.4927 59.7322 29.5518L54.4317 32.202L47.3574 18.6547L52.6897 15.9887C52.9244 15.8726 53.1951 15.8527 53.4442 15.9333C53.6933 16.014 53.9011 16.1887 54.0232 16.4203L60.1714 28.1944C60.2333 28.312 60.2709 28.4408 60.2821 28.5732C60.2932 28.7056 60.2777 28.8389 60.2364 28.9652V28.9652ZM28.9702 53.4578C28.9385 53.5853 28.882 53.7052 28.8038 53.8108C28.7257 53.9164 28.6275 54.0055 28.5148 54.0731C28.4022 54.1407 28.2773 54.1855 28.1474 54.2048C28.0175 54.224 27.885 54.2175 27.7576 54.1856L20.2227 52.302C19.7642 52.1867 19.3391 51.9653 18.982 51.6555L13.344 46.7547C13.2445 46.6686 13.163 46.5638 13.1041 46.4462C13.0452 46.3286 13.0101 46.2006 13.0007 46.0694C12.9914 45.9382 13.008 45.8064 13.0497 45.6817C13.0914 45.5569 13.1572 45.4416 13.2435 45.3424C13.3298 45.2431 13.4348 45.1618 13.5525 45.1032C13.6703 45.0446 13.7984 45.0098 13.9296 45.0008C14.0608 44.9918 14.1925 45.0088 14.3172 45.0507C14.4418 45.0927 14.557 45.1588 14.656 45.2454L20.2942 50.1463C20.4135 50.2495 20.5553 50.3233 20.7083 50.3618L28.2425 52.2451C28.4997 52.3095 28.7209 52.4734 28.8574 52.7008C28.9939 52.9282 29.0345 53.2005 28.9702 53.4578Z" fill="#0F506E"/>
</svg>
