<svg width="64" height="64" viewBox="0 0 64 64" fill="none" xmlns="http://www.w3.org/2000/svg">
<path d="M31.9766 5.99609C31.7135 5.99924 31.4623 6.1059 31.2773 6.29296C26.2326 11.389 19.817 14.9053 12.8086 16.4219C12.5847 16.4702 12.3841 16.594 12.2405 16.7724C12.0969 16.9509 12.0189 17.1733 12.0195 17.4023V36.4648C12.0195 41.844 14.0962 45.7341 17.5586 48.9141C21.021 52.0939 25.8116 54.6661 31.4922 57.8711C31.6428 57.9544 31.8123 57.9975 31.9844 57.9961H32.0156C32.1877 57.9975 32.3572 57.9544 32.5078 57.8711C38.1884 54.6661 42.979 52.0939 46.4414 48.9141C49.9038 45.7341 51.9805 41.844 51.9805 36.4648V17.3945C51.9811 17.1654 51.9031 16.9431 51.7595 16.7646C51.6159 16.5861 51.4153 16.4624 51.1914 16.4141C44.1758 14.9039 37.7511 11.3859 32.6992 6.28906C32.6045 6.19432 32.4918 6.11957 32.3676 6.06924C32.2435 6.01891 32.1105 5.99404 31.9766 5.99609ZM31.9883 8.23437C37.0072 13.07 43.2001 16.4633 49.9805 18.0781V36.4648C49.9805 41.3512 48.2654 44.525 45.0898 47.4414C42.0121 50.2682 37.4613 52.7783 32 55.8555C26.5387 52.7783 21.9879 50.2682 18.9102 47.4414C15.7346 44.525 14.0195 41.3512 14.0195 36.4648V18.0859C20.7923 16.4653 26.9766 13.069 31.9883 8.23437ZM32 20C25.3844 20 20 25.3844 20 32C20 38.6156 25.3844 44 32 44C38.6156 44 44 38.6156 44 32C44 25.3844 38.6156 20 32 20ZM32 22C37.5347 22 42 26.4654 42 32C42 34.3644 41.1502 36.5016 39.7852 38.2109C39.1973 35.6587 37.3908 33.5744 35.0078 32.6016C35.617 31.899 36 30.9956 36 30C36 27.8028 34.1973 26 32 26C29.8027 26 28 27.8028 28 30C28 30.9936 28.3813 31.8956 28.9883 32.5977C26.6114 33.5685 24.7964 35.6481 24.207 38.207C22.845 36.4987 22 34.3615 22 32C22 26.4654 26.4653 22 32 22ZM32 28C33.1164 28 34 28.8836 34 30C34 31.1164 33.1164 32 32 32C30.8836 32 30 31.1164 30 30C30 28.8836 30.8836 28 32 28ZM32.0703 34C35.3376 34.038 37.9584 36.6586 38 39.9258C38.0011 39.9362 38.0024 39.9466 38.0039 39.957C36.3295 41.2209 34.266 42 32 42C29.7289 42 27.6607 41.2183 25.9844 39.9492C25.9954 39.8952 26.0019 39.8403 26.0039 39.7852C26.1222 36.52 28.8031 33.9616 32.0703 34Z" fill="#0F506E"/>
</svg>
