<svg width="50" height="50" viewBox="0 0 50 50" fill="none" xmlns="http://www.w3.org/2000/svg">
<path d="M14.209 0.0976562C13.3301 0.214844 12.0703 0.556641 11.1035 0.9375C9.89258 1.39648 8.33984 2.2168 8.18359 2.4707C8.10547 2.58789 6.25 7.85156 4.05273 14.1602C1.26953 22.1582 0.0585938 25.752 0.0585938 26.0254C0.078125 27.0215 1.5918 29.0527 3.17383 30.1953C5.74219 32.041 9.59961 32.4902 12.6953 31.3086C14.0527 30.791 15.1074 30.0879 16.1719 28.9844C17.1582 27.9785 17.9687 26.6211 17.9687 25.9961C17.9687 25.8594 16.2305 20.7422 14.1016 14.6191C11.9727 8.50586 10.2539 3.48633 10.2734 3.4668C10.2832 3.45703 10.6348 3.30078 11.0352 3.125C12.8711 2.32422 14.248 2.01172 15.625 2.07031C17.0898 2.13867 17.2852 2.24609 20.9766 4.79492L21.9727 5.48828V25.2539V45.0098L18.291 45.0391L14.5996 45.0684L14.043 45.332C13.3496 45.6543 12.6465 46.3672 12.3145 47.0703C12.0996 47.5391 12.0605 47.7734 12.0312 48.7988L11.9922 50H25H38.0078L37.9687 48.7988C37.9394 47.7734 37.9004 47.5391 37.6855 47.0703C37.3535 46.3672 36.6504 45.6543 35.957 45.332L35.4004 45.0684L31.7187 45.0391L28.0273 45.0098V25.7324V6.46484L28.3496 6.39648C28.5156 6.35742 29.3262 6.13281 30.1465 5.89844C33.3789 4.96094 34.4141 4.94141 36.0352 5.76172C37.0898 6.29883 39.5605 8.26172 39.8535 8.79883C39.9219 8.94531 39.0918 11.4355 35.9863 20.3613C33.8086 26.6211 32.0312 31.8555 32.0312 32.002C32.0312 32.3633 32.5098 33.3496 33.0176 34.0527C34.375 35.9277 36.3867 37.2168 38.8086 37.7637C39.8828 38.0078 42.2852 37.9785 43.3594 37.7148C45.8008 37.1094 47.5977 35.9277 49.043 33.9746C49.3848 33.5156 49.8633 32.5488 49.9512 32.168C50 31.9141 49.2383 29.6484 45.9473 20.2051C43.7012 13.7891 41.8066 8.34961 41.7187 8.11523C41.4648 7.38281 39.5898 5.625 37.9297 4.56055C37.1289 4.04297 35.8789 3.47656 35.2051 3.31055C34.9414 3.24219 34.2383 3.19336 33.6426 3.19336C32.4805 3.19336 31.9043 3.31055 29.4922 4.00391C28.75 4.21875 28.125 4.39453 28.0957 4.39453C28.0762 4.39453 28.0273 3.91602 28.0078 3.32031C27.9492 2.06055 27.6953 1.42578 27.0312 0.830078C26.416 0.263672 25.8594 0.0488281 25 0.0488281C23.5156 0.0488281 22.3437 1.00586 22.0703 2.44141C22.0117 2.72461 21.9531 2.97852 21.9336 2.99805C21.9141 3.01758 21.4062 2.67578 20.8008 2.24609C18.5059 0.605469 17.3535 0.0976562 15.7324 0.0488281C15.2148 0.0292969 14.5312 0.0488281 14.209 0.0976562ZM25.6934 2.33398L25.9766 2.61719V23.8184V45.0195H25H24.0234V23.8184V2.61719L24.3066 2.33398C24.5312 2.10938 24.6777 2.05078 25 2.05078C25.3223 2.05078 25.4687 2.10938 25.6934 2.33398ZM12.3437 15.6445L15.5957 25H9.01367C5.40039 25 2.44141 24.9805 2.44141 24.9512C2.44141 24.8926 8.73047 6.80664 8.89648 6.39648C8.95508 6.23047 9.02344 6.14258 9.04297 6.20117C9.0625 6.25 10.5469 10.5078 12.3437 15.6445ZM44.2871 21.4844C46.0449 26.5625 47.5098 30.7715 47.5391 30.8301C47.5684 30.9277 46.2305 30.957 41.0254 30.957C37.4219 30.957 34.4727 30.9277 34.4727 30.8789C34.4727 30.6836 40.9766 12.1289 41.0254 12.1875C41.0547 12.2266 42.5293 16.4062 44.2871 21.4844ZM15.2344 27.0312C15.2344 27.0801 14.9121 27.4219 14.5312 27.8027C12.9395 29.3262 10.8789 30.0781 8.59375 29.9414C8.02734 29.9121 7.28516 29.8242 6.94336 29.7363C6.2207 29.5605 4.86328 28.9453 4.32617 28.5547C3.76953 28.1543 2.83203 27.2168 2.83203 27.0801C2.83203 26.9824 4.05273 26.9531 9.0332 26.9531C12.4414 26.9531 15.2344 26.9922 15.2344 27.0312ZM46.9629 33.4082C46.6113 33.8574 45.4785 34.7363 44.8535 35.0488C43.5644 35.6934 42.4609 35.9473 40.9668 35.9473C38.7598 35.9473 36.9531 35.2344 35.3711 33.75C34.5117 32.9395 33.9648 33.0078 41.0156 33.0078H47.2852L46.9629 33.4082ZM34.8828 47.0703C35.2734 47.1777 35.8398 47.6758 35.8398 47.9102C35.8398 48.0273 34.3066 48.0469 25 48.0469C15.6934 48.0469 14.1602 48.0273 14.1602 47.9102C14.1602 47.6953 14.7266 47.1777 15.0684 47.0801C15.5176 46.9531 34.4238 46.9434 34.8828 47.0703Z" fill="#0F506E"/>
</svg>
