<svg width="25" height="25" viewBox="0 0 25 25" fill="none" xmlns="http://www.w3.org/2000/svg">
<path d="M10.1562 20.3125C10.2591 20.3131 10.361 20.2934 10.4562 20.2545C10.5513 20.2157 10.6379 20.1584 10.7109 20.086C10.7841 20.0133 10.8423 19.9269 10.8819 19.8317C10.9216 19.7365 10.942 19.6344 10.942 19.5313C10.942 19.4281 10.9216 19.326 10.8819 19.2308C10.8423 19.1356 10.7841 19.0492 10.7109 18.9766L4.22655 12.5L10.7109 6.02346C10.858 5.87635 10.9407 5.67682 10.9407 5.46877C10.9407 5.26072 10.858 5.0612 10.7109 4.91409C10.5638 4.76697 10.3643 4.68433 10.1562 4.68433C9.94819 4.68433 9.74866 4.76697 9.60155 4.91409L2.5703 11.9453C2.49707 12.018 2.43895 12.1044 2.39929 12.1996C2.35963 12.2948 2.33921 12.3969 2.33921 12.5C2.33921 12.6032 2.35963 12.7053 2.39929 12.8005C2.43895 12.8957 2.49707 12.9821 2.5703 13.0547L9.60155 20.086C9.67455 20.1584 9.76112 20.2157 9.85631 20.2545C9.95149 20.2934 10.0534 20.3131 10.1562 20.3125Z" fill="#356FBD"/>
<path d="M3.125 13.2812H21.875C22.0822 13.2812 22.2809 13.1989 22.4274 13.0524C22.5739 12.9059 22.6562 12.7072 22.6562 12.5C22.6562 12.2928 22.5739 12.0941 22.4274 11.9476C22.2809 11.8011 22.0822 11.7188 21.875 11.7188H3.125C2.9178 11.7188 2.71909 11.8011 2.57257 11.9476C2.42606 12.0941 2.34375 12.2928 2.34375 12.5C2.34375 12.7072 2.42606 12.9059 2.57257 13.0524C2.71909 13.1989 2.9178 13.2812 3.125 13.2812Z" fill="#1886B7"/>
</svg>
