<svg width="25" height="25" viewBox="0 0 25 25" fill="none" xmlns="http://www.w3.org/2000/svg">
<path d="M14.8438 20.3125C14.7409 20.3131 14.639 20.2934 14.5438 20.2545C14.4487 20.2157 14.3621 20.1584 14.2891 20.086C14.2159 20.0133 14.1577 19.9269 14.1181 19.8317C14.0784 19.7365 14.058 19.6344 14.058 19.5313C14.058 19.4281 14.0784 19.326 14.1181 19.2308C14.1577 19.1356 14.2159 19.0492 14.2891 18.9766L20.7735 12.5L14.2891 6.02346C14.142 5.87635 14.0593 5.67682 14.0593 5.46877C14.0593 5.26072 14.142 5.0612 14.2891 4.91409C14.4362 4.76697 14.6357 4.68433 14.8438 4.68433C15.0518 4.68433 15.2513 4.76697 15.3985 4.91409L22.4297 11.9453C22.5029 12.018 22.561 12.1044 22.6007 12.1996C22.6404 12.2948 22.6608 12.3969 22.6608 12.5C22.6608 12.6032 22.6404 12.7053 22.6007 12.8005C22.561 12.8957 22.5029 12.9821 22.4297 13.0547L15.3985 20.086C15.3255 20.1584 15.2389 20.2157 15.1437 20.2545C15.0485 20.2934 14.9466 20.3131 14.8438 20.3125Z" fill="#F0A07F"/>
<path d="M21.875 13.2812H3.125C2.9178 13.2812 2.71909 13.1989 2.57257 13.0524C2.42606 12.9059 2.34375 12.7072 2.34375 12.5C2.34375 12.2928 2.42606 12.0941 2.57257 11.9476C2.71909 11.8011 2.9178 11.7188 3.125 11.7188H21.875C22.0822 11.7188 22.2809 11.8011 22.4274 11.9476C22.5739 12.0941 22.6562 12.2928 22.6562 12.5C22.6562 12.7072 22.5739 12.9059 22.4274 13.0524C22.2809 13.1989 22.0822 13.2812 21.875 13.2812Z" fill="#EA6A62"/>
</svg>
