<svg width="30" height="30" viewBox="0 0 30 30" fill="none" xmlns="http://www.w3.org/2000/svg">
<path d="M27.8738 4.21904C26.4563 2.83486 24.4978 2.14307 21.9976 2.14307C21.3057 2.14307 20.5995 2.26304 19.8798 2.50286C19.1598 2.74286 18.49 3.06665 17.8711 3.474C17.2515 3.88123 16.7189 4.26366 16.2722 4.6207C15.826 4.97785 15.4017 5.35741 15 5.75907C14.5981 5.35741 14.174 4.97785 13.7277 4.6207C13.2811 4.26366 12.7484 3.88147 12.1288 3.474C11.5094 3.06648 10.8397 2.74292 10.1199 2.50286C9.40009 2.2631 8.69405 2.14307 8.00213 2.14307C5.50205 2.14307 3.54347 2.83504 2.1261 4.21904C0.70874 5.60292 0 7.52245 0 9.9778C0 10.7256 0.131346 11.496 0.39351 12.288C0.655674 13.0804 0.954428 13.7557 1.28918 14.3136C1.62388 14.8715 2.00344 15.4155 2.42755 15.9457C2.85167 16.4758 3.16163 16.8412 3.35671 17.0421C3.55197 17.243 3.70548 17.3882 3.81707 17.4776L14.2633 27.5558C14.4643 27.7566 14.7098 27.8574 14.9999 27.8574C15.2901 27.8574 15.5358 27.7566 15.7366 27.5558L26.1663 17.5107C28.7221 14.9553 29.9999 12.4442 29.9999 9.97756C30 7.52204 29.2913 5.60268 27.8738 4.21904ZM24.7097 15.9373L15 25.2955L5.27366 15.9204C3.18655 13.8339 2.14317 11.8526 2.14317 9.97756C2.14317 9.07368 2.26314 8.27558 2.50296 7.58378C2.74296 6.89187 3.04986 6.34203 3.42373 5.93468C3.79766 5.52722 4.25238 5.19545 4.78809 4.93857C5.32408 4.68191 5.84859 4.50888 6.36189 4.41963C6.8752 4.3305 7.42198 4.28588 8.00243 4.28588C8.5827 4.28588 9.20782 4.42802 9.87745 4.7127C10.547 4.99726 11.1636 5.35442 11.7271 5.78405C12.2908 6.21397 12.7735 6.61569 13.1755 6.98944C13.5772 7.36354 13.9119 7.70651 14.1798 8.01904C14.3806 8.26467 14.6542 8.38745 15.0001 8.38745C15.346 8.38745 15.6194 8.26467 15.8204 8.01904C16.0882 7.70651 16.4232 7.36337 16.8249 6.98944C17.2267 6.61569 17.7094 6.21415 18.2729 5.78405C18.8365 5.35442 19.4532 4.99726 20.123 4.7127C20.7924 4.42808 21.4177 4.28588 21.998 4.28588C22.5784 4.28588 23.125 4.3305 23.6385 4.41963C24.152 4.50882 24.6765 4.68191 25.2123 4.93857C25.7481 5.19539 26.2028 5.5274 26.5766 5.93468C26.9505 6.34203 27.2575 6.89187 27.4975 7.58378C27.7371 8.27558 27.8571 9.07368 27.8571 9.97756C27.8569 11.8526 26.8081 13.8394 24.7097 15.9373Z" fill="#F0A07F"/>
</svg>
